<svg width="1974" height="405" viewBox="0 0 1974 405" fill="none" xmlns="http://www.w3.org/2000/svg">
<path d="M0.150762 202.428C0.150762 170.238 0.21076 138.038 0.0707598 105.848C0.0507598 102.198 1.12076 100.038 4.35076 98.1783C60.5108 65.8683 116.621 33.4683 172.701 1.01833C175.231 -0.451675 177.181 -0.261678 179.611 1.14832C235.571 33.5183 291.561 65.8483 347.601 98.0883C350.731 99.8883 352.071 101.878 352.061 105.638C351.941 170.168 351.941 234.688 352.061 299.218C352.071 302.968 350.731 305.008 347.611 306.798C291.801 338.878 236.031 371.028 180.311 403.268C177.311 404.998 175.111 405.218 171.981 403.408C116.651 371.338 61.2608 339.358 5.79076 307.528C1.51076 305.078 -0.0392475 302.368 0.000752459 297.348C0.280752 265.708 0.150762 234.068 0.150762 202.428ZM316.391 202.798C316.391 177.298 316.321 151.788 316.471 126.288C316.491 122.628 315.371 120.508 312.141 118.658C267.911 93.2783 223.751 67.7783 179.631 42.2083C176.991 40.6783 175.071 40.6983 172.441 42.2283C128.321 67.7883 84.1508 93.2683 39.9308 118.668C36.9308 120.388 35.6008 122.308 35.6108 125.878C35.7208 177.018 35.7008 228.168 35.6308 279.308C35.6308 282.288 36.4908 284.088 39.1908 285.638C83.3908 311.058 127.551 336.568 171.651 362.168C174.831 364.018 177.261 364.018 180.441 362.168C224.421 336.628 268.441 311.178 312.531 285.838C315.521 284.118 316.461 282.168 316.451 278.878C316.351 253.518 316.401 228.158 316.391 202.798Z" fill="url(#paint0_linear_65_201)"/>
<path d="M288.981 238.988C288.981 247.078 288.891 255.158 289.031 263.248C289.081 266.258 287.981 268.048 285.331 269.568C250.291 289.708 215.291 309.928 180.341 330.238C177.341 331.978 174.941 332.088 171.891 330.318C141.651 312.738 111.351 295.248 81.0207 277.808C78.1207 276.148 77.9907 274.998 80.9107 273.328C90.7107 267.728 100.501 262.098 110.231 256.378C112.411 255.098 114.061 255.698 116.011 256.828C134.811 267.738 153.691 278.538 172.461 289.508C175.091 291.048 177.031 291.028 179.661 289.498C202.661 276.088 225.711 262.788 248.831 249.578C251.841 247.858 252.741 245.768 253.211 242.348C254.361 233.828 251.221 228.948 243.471 225.078C231.271 218.988 219.691 211.648 207.881 204.798C204.121 202.618 204.161 202.198 207.941 200.008C217.351 194.568 226.811 189.208 236.151 183.648C238.521 182.238 240.321 182.328 242.661 183.688C256.731 191.928 270.851 200.088 285.041 208.118C287.961 209.778 289.121 211.828 289.041 215.158C288.861 223.098 288.981 231.038 288.981 238.988Z" fill="white"/>
<path d="M63.1407 165.908C63.1407 157.828 63.2207 149.738 63.1007 141.658C63.0607 138.668 64.1507 136.808 66.7907 135.298C102.191 114.938 137.541 94.5083 172.861 74.0283C175.241 72.6483 177.101 72.8083 179.401 74.1383C209.911 91.8183 240.441 109.448 271.021 127.008C274.261 128.868 273.941 129.988 270.941 131.678C261.231 137.168 251.561 142.708 241.991 148.418C239.581 149.848 237.881 149.058 235.871 147.898C217.301 137.138 198.671 126.488 180.161 115.618C177.081 113.808 174.791 113.958 171.791 115.718C148.921 129.058 125.981 142.288 102.991 155.418C100.051 157.098 98.9107 159.068 99.0107 162.408C99.4407 176.538 96.9507 172.588 108.641 179.458C120.411 186.378 132.281 193.128 144.111 199.968C147.981 202.208 148.041 202.588 144.391 204.718C134.881 210.258 125.291 215.678 115.801 221.248C113.611 222.538 111.811 222.458 109.611 221.178C95.4107 212.888 81.1707 204.658 66.8707 196.538C64.0707 194.948 63.0607 192.878 63.1107 189.758C63.2307 181.798 63.1407 173.848 63.1407 165.908Z" fill="white"/>
<path d="M176.16 145.638C177.19 146.148 178.2 146.588 179.16 147.138C188.82 152.678 198.45 158.288 208.14 163.768C210.77 165.258 211.13 166.268 208.24 167.898C198.42 173.438 188.65 179.078 178.91 184.758C177.06 185.838 175.53 186.128 173.53 184.948C163.81 179.228 154.02 173.638 144.23 168.038C142.12 166.828 140.95 165.658 143.81 163.998C153.94 158.148 164.06 152.298 174.2 146.458C174.77 146.118 175.44 145.928 176.16 145.638Z" fill="url(#paint1_linear_65_201)"/>
<path d="M176.021 259.118C174.981 258.638 173.941 258.248 172.991 257.698C163.461 252.218 153.97 246.678 144.421 241.228C141.701 239.678 141.23 238.468 144.32 236.728C154.13 231.178 163.87 225.518 173.6 219.828C175.4 218.778 176.891 218.888 178.641 219.908C188.371 225.588 198.15 231.198 207.91 236.818C209.9 237.958 211.4 239.128 208.41 240.838C198.4 246.598 188.39 252.348 178.37 258.088C177.66 258.508 176.861 258.758 176.021 259.118Z" fill="url(#paint2_linear_65_201)"/>
<path d="M455.03 192.838C445.32 185.648 440.1 175.358 439.36 161.968H477.88C478.25 166.518 479.6 169.838 481.93 171.918C484.26 174.008 487.28 175.048 490.96 175.048C494.28 175.048 497.01 174.218 499.16 172.558C501.31 170.898 502.39 168.598 502.39 165.648C502.39 161.838 500.61 158.888 497.04 156.798C493.47 154.708 487.7 152.378 479.71 149.798C471.23 146.968 464.38 144.238 459.16 141.598C453.94 138.958 449.39 135.088 445.52 129.988C441.65 124.888 439.71 118.228 439.71 109.988C439.71 101.628 441.8 94.4783 445.98 88.5183C450.16 82.5583 455.93 78.0483 463.31 74.9683C470.68 71.8983 479.04 70.3583 488.38 70.3583C503.49 70.3583 515.57 73.8883 524.6 80.9583C533.63 88.0283 538.45 97.9483 539.07 110.728H499.81C499.69 106.798 498.49 103.848 496.22 101.878C493.94 99.9183 491.03 98.9283 487.47 98.9283C484.76 98.9283 482.55 99.7283 480.83 101.328C479.11 102.928 478.25 105.198 478.25 108.148C478.25 110.608 479.2 112.728 481.11 114.508C483.01 116.288 485.38 117.828 488.21 119.118C491.04 120.408 495.21 122.038 500.74 123.998C508.97 126.828 515.76 129.618 521.11 132.388C526.46 135.158 531.06 139.028 534.93 143.998C538.8 148.978 540.74 155.278 540.74 162.888C540.74 170.628 538.8 177.568 534.93 183.718C531.06 189.868 525.47 194.718 518.16 198.278C510.85 201.848 502.22 203.618 492.26 203.618C477.14 203.628 464.73 200.028 455.03 192.838Z" fill="#A11C2F"/>
<path d="M577.87 197.178C569.7 192.878 563.28 186.738 558.61 178.748C553.94 170.758 551.61 161.358 551.61 150.548C551.61 139.858 553.97 130.518 558.71 122.528C563.44 114.538 569.89 108.398 578.06 104.098C586.23 99.7983 595.48 97.6483 605.8 97.6483C616.12 97.6483 625.37 99.7983 633.54 104.098C641.71 108.398 648.16 114.548 652.89 122.528C657.62 130.518 659.99 139.858 659.99 150.548C659.99 161.238 657.62 170.608 652.89 178.658C648.16 186.708 641.68 192.878 633.44 197.178C625.21 201.478 615.93 203.628 605.61 203.628C595.29 203.628 586.04 201.478 577.87 197.178ZM618.24 166.668C621.62 162.918 623.31 157.548 623.31 150.538C623.31 143.528 621.62 138.188 618.24 134.498C614.86 130.808 610.71 128.968 605.8 128.968C600.88 128.968 596.77 130.808 593.45 134.498C590.13 138.188 588.47 143.528 588.47 150.538C588.47 157.668 590.07 163.068 593.26 166.758C596.45 170.448 600.57 172.288 605.61 172.288C610.65 172.288 614.86 170.418 618.24 166.668Z" fill="#A11C2F"/>
<path d="M710.86 65.9384V202.338H674.73V65.9384H710.86Z" fill="#A11C2F"/>
<path d="M837.301 98.9283V202.328H800.991V187.578C797.921 192.248 793.681 196.028 788.271 198.908C782.861 201.798 776.661 203.238 769.651 203.238C757.611 203.238 748.111 199.278 741.171 191.348C734.231 183.418 730.761 172.638 730.761 158.998V98.9283H766.701V154.408C766.701 160.308 768.271 164.948 771.401 168.328C774.531 171.708 778.681 173.398 783.841 173.398C789.121 173.398 793.301 171.708 796.371 168.328C799.441 164.948 800.981 160.308 800.981 154.408V98.9283H837.301Z" fill="#A11C2F"/>
<path d="M918.951 171.558V202.338H903.281C876.861 202.338 863.651 189.248 863.651 163.078V128.978H850.931V98.9283H863.651V73.8583H899.961V98.9283H918.761V128.968H899.961V163.618C899.961 166.448 900.611 168.478 901.891 169.698C903.181 170.928 905.361 171.538 908.431 171.538H918.951V171.558Z" fill="#A11C2F"/>
<path d="M938.401 84.0983C934.531 80.5983 932.591 76.2083 932.591 70.9183C932.591 65.5083 934.531 61.0283 938.401 57.4583C942.271 53.8983 947.401 52.1083 953.791 52.1083C960.061 52.1083 965.131 53.8883 969.001 57.4583C972.871 61.0283 974.811 65.5083 974.811 70.9183C974.811 76.2083 972.871 80.5983 969.001 84.0983C965.131 87.5983 960.061 89.3483 953.791 89.3483C947.401 89.3483 942.271 87.5983 938.401 84.0983ZM971.671 98.9283V202.328H935.541V98.9283H971.671Z" fill="#A11C2F"/>
<path d="M1012.68 197.178C1004.51 192.878 998.09 186.738 993.42 178.748C988.75 170.758 986.42 161.358 986.42 150.548C986.42 139.858 988.78 130.518 993.52 122.528C998.25 114.538 1004.7 108.398 1012.87 104.098C1021.04 99.7983 1030.29 97.6483 1040.61 97.6483C1050.93 97.6483 1060.18 99.7983 1068.35 104.098C1076.52 108.398 1082.97 114.548 1087.7 122.528C1092.43 130.518 1094.8 139.858 1094.8 150.548C1094.8 161.238 1092.43 170.608 1087.7 178.658C1082.97 186.708 1076.49 192.878 1068.25 197.178C1060.02 201.478 1050.74 203.628 1040.42 203.628C1030.09 203.628 1020.85 201.478 1012.68 197.178ZM1053.04 166.668C1056.42 162.918 1058.11 157.548 1058.11 150.538C1058.11 143.528 1056.42 138.188 1053.04 134.498C1049.66 130.808 1045.51 128.968 1040.6 128.968C1035.68 128.968 1031.57 130.808 1028.25 134.498C1024.93 138.188 1023.27 143.528 1023.27 150.538C1023.27 157.668 1024.87 163.068 1028.06 166.758C1031.25 170.448 1035.37 172.288 1040.41 172.288C1045.45 172.288 1049.66 170.418 1053.04 166.668Z" fill="#A11C2F"/>
<path d="M1205.56 109.898C1212.56 117.828 1216.07 128.548 1216.07 142.058V202.328H1179.94V146.848C1179.94 140.948 1178.4 136.308 1175.33 132.928C1172.26 129.548 1168.14 127.858 1162.98 127.858C1157.57 127.858 1153.33 129.548 1150.26 132.928C1147.19 136.308 1145.65 140.948 1145.65 146.848V202.328H1109.52V98.9284H1145.65V113.678C1148.84 109.008 1153.14 105.228 1158.55 102.338C1163.96 99.4484 1170.16 98.0084 1177.17 98.0084C1189.1 98.0084 1198.56 101.968 1205.56 109.898Z" fill="#A11C2F"/>
<path d="M1255.05 198.928C1247.74 195.798 1241.96 191.498 1237.72 186.028C1233.48 180.558 1231.11 174.388 1230.62 167.508H1265.64C1266.13 170.828 1267.67 173.408 1270.25 175.248C1272.83 177.088 1276.02 178.008 1279.83 178.008C1282.78 178.008 1285.11 177.398 1286.83 176.168C1288.55 174.938 1289.41 173.338 1289.41 171.378C1289.41 168.798 1288 166.898 1285.17 165.668C1282.34 164.438 1277.67 163.088 1271.16 161.618C1263.79 160.148 1257.64 158.488 1252.73 156.638C1247.81 154.798 1243.54 151.788 1239.92 147.608C1236.3 143.428 1234.48 137.778 1234.48 130.648C1234.48 124.508 1236.14 118.948 1239.46 113.968C1242.78 108.988 1247.66 105.028 1254.11 102.078C1260.56 99.1283 1268.33 97.6583 1277.43 97.6583C1290.95 97.6583 1301.58 100.978 1309.32 107.608C1317.06 114.248 1321.55 122.968 1322.78 133.778H1290.16C1289.54 130.458 1288.1 127.908 1285.83 126.128C1283.55 124.348 1280.51 123.458 1276.71 123.458C1273.76 123.458 1271.52 124.008 1269.98 125.118C1268.44 126.228 1267.68 127.758 1267.68 129.728C1267.68 132.188 1269.09 134.058 1271.92 135.348C1274.74 136.638 1279.29 137.958 1285.56 139.308C1293.05 140.908 1299.29 142.688 1304.27 144.648C1309.25 146.618 1313.61 149.778 1317.36 154.138C1321.11 158.498 1322.98 164.428 1322.98 171.928C1322.98 177.948 1321.23 183.358 1317.73 188.148C1314.23 192.938 1309.25 196.718 1302.8 199.478C1296.35 202.248 1288.76 203.628 1280.04 203.628C1270.69 203.628 1262.36 202.058 1255.05 198.928Z" fill="#A11C2F"/>
<path d="M1396.52 73.8683V202.338H1379.75V73.8683H1396.52Z" fill="white"/>
<path d="M1504.16 110.638C1511.78 118.078 1515.59 128.798 1515.59 142.798V202.338H1499V145.198C1499 135.128 1496.48 127.408 1491.44 122.068C1486.4 116.728 1479.52 114.048 1470.8 114.048C1461.95 114.048 1454.92 116.808 1449.7 122.338C1444.48 127.868 1441.87 135.918 1441.87 146.488V202.338H1425.1V101.328H1441.87V115.708C1445.19 110.548 1449.7 106.558 1455.42 103.728C1461.13 100.898 1467.43 99.4883 1474.31 99.4883C1486.58 99.4883 1496.54 103.208 1504.16 110.638Z" fill="white"/>
<path d="M1622.12 110.638C1629.74 118.078 1633.55 128.798 1633.55 142.798V202.338H1616.96V145.198C1616.96 135.128 1614.44 127.408 1609.4 122.068C1604.36 116.728 1597.48 114.048 1588.76 114.048C1579.91 114.048 1572.88 116.808 1567.66 122.338C1562.44 127.868 1559.83 135.918 1559.83 146.488V202.338H1543.06V101.328H1559.83V115.708C1563.15 110.548 1567.66 106.558 1573.38 103.728C1579.09 100.898 1585.39 99.4883 1592.27 99.4883C1604.55 99.4883 1614.5 103.208 1622.12 110.638Z" fill="white"/>
<path d="M1679.35 197.548C1671.67 193.248 1665.65 187.138 1661.29 179.208C1656.93 171.278 1654.75 162.098 1654.75 151.648C1654.75 141.328 1656.99 132.198 1661.48 124.278C1665.96 116.348 1672.08 110.268 1679.82 106.028C1687.56 101.788 1696.22 99.6683 1705.81 99.6683C1715.39 99.6683 1724.06 101.788 1731.8 106.028C1739.54 110.268 1745.65 116.318 1750.14 124.188C1754.62 132.058 1756.87 141.208 1756.87 151.648C1756.87 162.098 1754.57 171.278 1749.96 179.208C1745.35 187.138 1739.11 193.248 1731.25 197.548C1723.38 201.848 1714.66 203.998 1705.08 203.998C1695.6 203.998 1687.03 201.848 1679.35 197.548ZM1722.02 185.008C1727.3 182.178 1731.57 177.948 1734.83 172.288C1738.08 166.638 1739.71 159.758 1739.71 151.648C1739.71 143.538 1738.11 136.658 1734.92 131.008C1731.72 125.358 1727.55 121.148 1722.39 118.388C1717.23 115.618 1711.64 114.238 1705.62 114.238C1699.47 114.238 1693.85 115.618 1688.75 118.388C1683.65 121.148 1679.56 125.358 1676.49 131.008C1673.42 136.658 1671.88 143.538 1671.88 151.648C1671.88 159.878 1673.38 166.828 1676.4 172.478C1679.41 178.128 1683.43 182.338 1688.47 185.108C1693.51 187.868 1699.04 189.258 1705.06 189.258C1711.08 189.248 1716.74 187.838 1722.02 185.008Z" fill="white"/>
<path d="M1816.58 186.848L1847.91 101.328H1865.79L1826.16 202.338H1806.62L1766.99 101.328H1785.05L1816.58 186.848Z" fill="white"/>
<path d="M1888.09 121.238C1884.4 116.078 1882.56 109.808 1882.56 102.438C1882.56 95.7983 1884.22 89.8083 1887.54 84.4683C1890.86 79.1183 1895.8 74.8883 1902.38 71.7483C1908.95 68.6183 1916.91 67.0483 1926.25 67.0483C1935.59 67.0483 1943.54 68.6183 1950.12 71.7483C1956.69 74.8783 1961.67 79.1183 1965.05 84.4683C1968.43 89.8083 1970.12 95.7983 1970.12 102.438C1970.12 109.568 1968.21 115.798 1964.41 121.148C1960.6 126.488 1955.38 130.458 1948.74 133.038C1956.36 135.368 1962.41 139.458 1966.9 145.298C1971.38 151.138 1973.63 158.168 1973.63 166.398C1973.63 174.388 1971.66 181.358 1967.73 187.318C1963.8 193.278 1958.24 197.888 1951.05 201.138C1943.86 204.388 1935.6 206.018 1926.26 206.018C1916.92 206.018 1908.72 204.388 1901.65 201.138C1894.58 197.888 1889.08 193.278 1885.15 187.318C1881.22 181.358 1879.25 174.388 1879.25 166.398C1879.25 158.168 1881.46 151.098 1885.89 145.198C1890.31 139.298 1896.33 135.248 1903.95 133.028C1897.06 130.328 1891.78 126.398 1888.09 121.238ZM1903.94 146.758C1898.16 150.998 1895.28 157.358 1895.28 165.838C1895.28 173.708 1898.07 180.028 1903.67 184.818C1909.26 189.608 1916.79 192.008 1926.25 192.008C1935.71 192.008 1943.21 189.608 1948.74 184.818C1954.27 180.028 1957.03 173.698 1957.03 165.838C1957.03 157.608 1954.2 151.308 1948.55 146.948C1942.9 142.588 1935.46 140.408 1926.25 140.408C1917.15 140.408 1909.72 142.528 1903.94 146.758ZM1946.52 87.1383C1941.6 83.0783 1934.84 81.0583 1926.24 81.0583C1917.76 81.0583 1911.06 83.0883 1906.15 87.1383C1901.23 91.1883 1898.78 97.0283 1898.78 104.648C1898.78 111.528 1901.33 117.058 1906.43 121.238C1911.53 125.418 1918.14 127.508 1926.24 127.508C1934.47 127.508 1941.14 125.388 1946.24 121.148C1951.34 116.908 1953.89 111.348 1953.89 104.468C1953.89 96.9683 1951.43 91.1883 1946.52 87.1383Z" fill="white"/>
<path d="M479.861 252.728C484.221 254.948 487.561 258.118 489.891 262.248C492.211 266.378 493.381 271.228 493.381 276.818C493.381 282.408 492.221 287.248 489.891 291.348C487.561 295.448 484.221 298.578 479.861 300.748C475.501 302.918 470.341 303.998 464.391 303.998H447.391V249.398H464.391C470.341 249.398 475.501 250.508 479.861 252.728ZM480.531 292.518C484.241 288.788 486.091 283.548 486.091 276.808C486.091 270.018 484.221 264.718 480.491 260.908C476.761 257.098 471.391 255.188 464.391 255.188H454.521V298.118H464.391C471.441 298.118 476.821 296.258 480.531 292.518Z" fill="white"/>
<path d="M552.68 252.688C551.74 251.748 551.271 250.598 551.271 249.238C551.271 247.878 551.74 246.728 552.68 245.788C553.62 244.848 554.77 244.378 556.13 244.378C557.43 244.378 558.551 244.848 559.461 245.788C560.371 246.728 560.831 247.878 560.831 249.238C560.831 250.598 560.371 251.748 559.461 252.688C558.551 253.628 557.44 254.098 556.13 254.098C554.76 254.098 553.62 253.628 552.68 252.688ZM559.57 261.068V303.998H552.44V261.068H559.57Z" fill="white"/>
<path d="M648.841 262.788C651.631 264.408 653.71 266.448 655.07 268.898V261.068H662.281V304.938C662.281 308.858 661.441 312.338 659.771 315.398C658.101 318.448 655.711 320.838 652.601 322.568C649.491 324.288 645.88 325.148 641.75 325.148C636.11 325.148 631.411 323.818 627.651 321.148C623.891 318.488 621.67 314.858 620.99 310.258H628.04C628.82 312.868 630.441 314.968 632.901 316.568C635.351 318.158 638.31 318.958 641.75 318.958C645.67 318.958 648.871 317.728 651.351 315.278C653.831 312.818 655.07 309.378 655.07 304.938V295.928C653.66 298.438 651.57 300.528 648.8 302.198C646.03 303.868 642.791 304.708 639.091 304.708C635.281 304.708 631.821 303.768 628.711 301.888C625.601 300.008 623.161 297.368 621.391 293.978C619.611 290.588 618.73 286.718 618.73 282.388C618.73 277.998 619.621 274.148 621.391 270.828C623.161 267.508 625.611 264.938 628.711 263.108C631.821 261.278 635.281 260.368 639.091 260.368C642.791 260.358 646.041 261.168 648.841 262.788ZM653.101 273.988C651.791 271.588 650.03 269.748 647.81 268.468C645.59 267.188 643.15 266.548 640.48 266.548C637.82 266.548 635.39 267.178 633.19 268.428C631 269.678 629.25 271.508 627.94 273.908C626.63 276.308 625.98 279.128 625.98 282.368C625.98 285.658 626.63 288.518 627.94 290.948C629.24 293.378 631 295.228 633.19 296.508C635.38 297.788 637.81 298.428 640.48 298.428C643.14 298.428 645.58 297.788 647.81 296.508C650.03 295.228 651.791 293.378 653.101 290.948C654.411 288.518 655.06 285.688 655.06 282.448C655.06 279.218 654.411 276.398 653.101 273.988Z" fill="white"/>
<path d="M724.241 252.688C723.301 251.748 722.831 250.598 722.831 249.238C722.831 247.878 723.301 246.728 724.241 245.788C725.181 244.848 726.331 244.378 727.691 244.378C728.991 244.378 730.111 244.848 731.021 245.788C731.931 246.728 732.391 247.878 732.391 249.238C732.391 250.598 731.931 251.748 731.021 252.688C730.111 253.628 729.001 254.098 727.691 254.098C726.321 254.098 725.181 253.628 724.241 252.688ZM731.131 261.068V303.998H724.001V261.068H731.131Z" fill="white"/>
<path d="M801.63 266.938V292.238C801.63 294.328 802.07 295.798 802.96 296.668C803.85 297.528 805.39 297.958 807.58 297.958H812.83V303.988H806.41C802.44 303.988 799.46 303.078 797.48 301.248C795.49 299.418 794.5 296.418 794.5 292.238V266.938H788.94V261.058H794.5V250.248H801.63V261.058H812.83V266.938H801.63Z" fill="white"/>
<path d="M871.12 270.818C872.89 267.498 875.34 264.928 878.44 263.098C881.55 261.268 885.01 260.358 888.82 260.358C892.58 260.358 895.84 261.168 898.61 262.788C901.38 264.408 903.44 266.448 904.8 268.898V261.068H912.01V303.998H904.8V296.008C903.39 298.518 901.29 300.588 898.49 302.238C895.69 303.888 892.45 304.708 888.74 304.708C884.93 304.708 881.48 303.768 878.4 301.888C875.32 300.008 872.89 297.368 871.11 293.978C869.33 290.588 868.45 286.718 868.45 282.388C868.46 277.988 869.34 274.138 871.12 270.818ZM902.85 273.988C901.54 271.588 899.78 269.748 897.56 268.468C895.34 267.188 892.9 266.548 890.23 266.548C887.57 266.548 885.14 267.178 882.94 268.428C880.75 269.678 879 271.508 877.69 273.908C876.38 276.308 875.73 279.128 875.73 282.368C875.73 285.658 876.38 288.518 877.69 290.948C878.99 293.378 880.75 295.228 882.94 296.508C885.13 297.788 887.56 298.428 890.23 298.428C892.89 298.428 895.33 297.788 897.56 296.508C899.78 295.228 901.54 293.378 902.85 290.948C904.16 288.518 904.81 285.688 904.81 282.448C904.81 279.218 904.15 276.398 902.85 273.988Z" fill="white"/>
<path d="M980.87 246.028V303.998H973.74V246.028H980.87Z" fill="white"/>
<path d="M1120.39 249.398V303.998H1113.26V249.398H1120.39Z" fill="white"/>
<path d="M1215.81 265.018C1219.05 268.178 1220.67 272.738 1220.67 278.688V303.988H1213.62V279.698C1213.62 275.418 1212.55 272.138 1210.41 269.868C1208.27 267.598 1205.34 266.458 1201.64 266.458C1197.88 266.458 1194.89 267.628 1192.67 269.988C1190.45 272.338 1189.34 275.758 1189.34 280.248V303.988H1182.21V261.058H1189.34V267.168C1190.75 264.978 1192.67 263.278 1195.1 262.078C1197.53 260.878 1200.2 260.278 1203.13 260.278C1208.34 260.288 1212.57 261.868 1215.81 265.018Z" fill="white"/>
<path d="M1315.61 265.018C1318.85 268.178 1320.47 272.738 1320.47 278.688V303.988H1313.42V279.698C1313.42 275.418 1312.35 272.138 1310.21 269.868C1308.07 267.598 1305.14 266.458 1301.44 266.458C1297.68 266.458 1294.69 267.628 1292.47 269.988C1290.25 272.338 1289.14 275.758 1289.14 280.248V303.988H1282.01V261.058H1289.14V267.168C1290.55 264.978 1292.47 263.278 1294.9 262.078C1297.33 260.878 1300 260.278 1302.93 260.278C1308.14 260.288 1312.37 261.868 1315.61 265.018Z" fill="white"/>
<path d="M1389.6 301.958C1386.34 300.128 1383.78 297.528 1381.92 294.168C1380.07 290.798 1379.14 286.898 1379.14 282.458C1379.14 278.068 1380.09 274.198 1382 270.828C1383.91 267.458 1386.5 264.878 1389.79 263.078C1393.08 261.278 1396.76 260.378 1400.84 260.378C1404.92 260.378 1408.6 261.278 1411.89 263.078C1415.18 264.878 1417.78 267.448 1419.68 270.798C1421.59 274.138 1422.54 278.028 1422.54 282.468C1422.54 286.908 1421.56 290.808 1419.6 294.178C1417.64 297.548 1414.99 300.148 1411.65 301.968C1408.31 303.798 1404.6 304.708 1400.53 304.708C1396.51 304.698 1392.86 303.788 1389.6 301.958ZM1407.74 296.628C1409.99 295.428 1411.8 293.628 1413.18 291.218C1414.56 288.818 1415.26 285.888 1415.26 282.448C1415.26 278.998 1414.58 276.078 1413.22 273.678C1411.86 271.278 1410.09 269.488 1407.89 268.308C1405.7 267.138 1403.32 266.548 1400.76 266.548C1398.15 266.548 1395.76 267.138 1393.59 268.308C1391.42 269.488 1389.68 271.268 1388.38 273.678C1387.07 276.078 1386.42 279.008 1386.42 282.448C1386.42 285.948 1387.06 288.898 1388.34 291.298C1389.62 293.698 1391.33 295.488 1393.47 296.668C1395.61 297.838 1397.96 298.428 1400.52 298.428C1403.09 298.438 1405.49 297.838 1407.74 296.628Z" fill="white"/>
<path d="M1497.59 297.418L1510.91 261.068H1518.51L1501.67 303.998H1493.37L1476.53 261.068H1484.21L1497.59 297.418Z" fill="white"/>
<path d="M1575.23 270.818C1577 267.498 1579.45 264.928 1582.55 263.098C1585.66 261.268 1589.12 260.358 1592.93 260.358C1596.69 260.358 1599.95 261.168 1602.72 262.788C1605.49 264.408 1607.55 266.448 1608.91 268.898V261.068H1616.12V303.998H1608.91V296.008C1607.5 298.518 1605.4 300.588 1602.6 302.238C1599.8 303.888 1596.56 304.708 1592.85 304.708C1589.04 304.708 1585.59 303.768 1582.51 301.888C1579.43 300.008 1577 297.368 1575.22 293.978C1573.44 290.588 1572.56 286.718 1572.56 282.388C1572.56 277.988 1573.45 274.138 1575.23 270.818ZM1606.95 273.988C1605.64 271.588 1603.88 269.748 1601.66 268.468C1599.44 267.188 1597 266.548 1594.33 266.548C1591.67 266.548 1589.24 267.178 1587.04 268.428C1584.85 269.678 1583.1 271.508 1581.79 273.908C1580.48 276.308 1579.83 279.128 1579.83 282.368C1579.83 285.658 1580.48 288.518 1581.79 290.948C1583.09 293.378 1584.85 295.228 1587.04 296.508C1589.23 297.788 1591.66 298.428 1594.33 298.428C1596.99 298.428 1599.43 297.788 1601.66 296.508C1603.88 295.228 1605.64 293.378 1606.95 290.948C1608.26 288.518 1608.91 285.688 1608.91 282.448C1608.91 279.218 1608.26 276.398 1606.95 273.988Z" fill="white"/>
<path d="M1686.54 266.938V292.238C1686.54 294.328 1686.98 295.798 1687.87 296.668C1688.76 297.528 1690.3 297.958 1692.49 297.958H1697.74V303.988H1691.32C1687.35 303.988 1684.37 303.078 1682.39 301.248C1680.4 299.418 1679.41 296.418 1679.41 292.238V266.938H1673.85V261.058H1679.41V250.248H1686.54V261.058H1697.74V266.938H1686.54Z" fill="white"/>
<path d="M1763.82 301.958C1760.56 300.128 1758 297.528 1756.14 294.168C1754.29 290.798 1753.36 286.898 1753.36 282.458C1753.36 278.068 1754.31 274.198 1756.22 270.828C1758.13 267.458 1760.72 264.878 1764.01 263.078C1767.3 261.278 1770.98 260.378 1775.06 260.378C1779.14 260.378 1782.82 261.278 1786.11 263.078C1789.4 264.878 1792 267.448 1793.9 270.798C1795.81 274.138 1796.76 278.028 1796.76 282.468C1796.76 286.908 1795.78 290.808 1793.82 294.178C1791.86 297.548 1789.21 300.148 1785.87 301.968C1782.53 303.798 1778.82 304.708 1774.75 304.708C1770.73 304.698 1767.09 303.788 1763.82 301.958ZM1781.96 296.628C1784.21 295.428 1786.02 293.628 1787.4 291.218C1788.78 288.818 1789.48 285.888 1789.48 282.448C1789.48 278.998 1788.8 276.078 1787.44 273.678C1786.08 271.278 1784.31 269.488 1782.11 268.308C1779.92 267.138 1777.54 266.548 1774.98 266.548C1772.37 266.548 1769.98 267.138 1767.81 268.308C1765.64 269.488 1763.9 271.268 1762.6 273.678C1761.29 276.078 1760.64 279.008 1760.64 282.448C1760.64 285.948 1761.28 288.898 1762.56 291.298C1763.84 293.698 1765.55 295.488 1767.69 296.668C1769.83 297.838 1772.18 298.428 1774.74 298.428C1777.31 298.438 1779.71 297.838 1781.96 296.628Z" fill="white"/>
<path d="M1868.33 262.318C1870.65 260.958 1873.49 260.278 1876.83 260.278V267.638H1874.95C1866.96 267.638 1862.96 271.978 1862.96 280.638V303.978H1855.83V261.048H1862.96V268.018C1864.22 265.588 1866 263.678 1868.33 262.318Z" fill="white"/>
<path d="M1941.06 303.018C1938.45 301.898 1936.39 300.328 1934.87 298.318C1933.36 296.308 1932.52 293.998 1932.36 291.388H1939.72C1939.93 293.528 1940.93 295.278 1942.74 296.638C1944.54 297.998 1946.9 298.678 1949.83 298.678C1952.54 298.678 1954.69 298.078 1956.25 296.878C1957.82 295.678 1958.6 294.168 1958.6 292.338C1958.6 290.458 1957.76 289.058 1956.09 288.148C1954.42 287.238 1951.83 286.338 1948.33 285.448C1945.14 284.618 1942.54 283.768 1940.54 282.898C1938.53 282.038 1936.81 280.758 1935.37 279.058C1933.93 277.358 1933.22 275.128 1933.22 272.358C1933.22 270.168 1933.87 268.158 1935.18 266.328C1936.48 264.498 1938.34 263.048 1940.74 261.978C1943.14 260.908 1945.88 260.368 1948.97 260.368C1953.72 260.368 1957.56 261.568 1960.49 263.968C1963.41 266.368 1964.98 269.658 1965.19 273.838H1958.06C1957.9 271.588 1957 269.788 1955.36 268.428C1953.72 267.068 1951.51 266.388 1948.74 266.388C1946.18 266.388 1944.14 266.938 1942.63 268.038C1941.11 269.138 1940.36 270.568 1940.36 272.348C1940.36 273.758 1940.82 274.918 1941.73 275.838C1942.64 276.758 1943.79 277.488 1945.18 278.028C1946.56 278.578 1948.48 279.188 1950.94 279.868C1954.02 280.708 1956.53 281.528 1958.46 282.338C1960.39 283.148 1962.05 284.358 1963.43 285.978C1964.81 287.598 1965.53 289.708 1965.58 292.318C1965.58 294.668 1964.93 296.788 1963.62 298.668C1962.31 300.548 1960.47 302.028 1958.1 303.098C1955.72 304.168 1952.99 304.708 1949.91 304.708C1946.63 304.698 1943.68 304.138 1941.06 303.018Z" fill="white"/>
<defs>
<linearGradient id="paint0_linear_65_201" x1="0.0140525" y1="202.335" x2="352.066" y2="202.335" gradientUnits="userSpaceOnUse">
<stop offset="0.0659" stop-color="#A61E2C"/>
<stop offset="1" stop-color="#660D21"/>
</linearGradient>
<linearGradient id="paint1_linear_65_201" x1="142.092" y1="165.668" x2="210.257" y2="165.668" gradientUnits="userSpaceOnUse">
<stop offset="0.0659" stop-color="#A61E2C"/>
<stop offset="1" stop-color="#660D21"/>
</linearGradient>
<linearGradient id="paint2_linear_65_201" x1="142.196" y1="239.107" x2="210.101" y2="239.107" gradientUnits="userSpaceOnUse">
<stop offset="0.0659" stop-color="#A61E2C"/>
<stop offset="1" stop-color="#660D21"/>
</linearGradient>
</defs>
</svg>
