<svg width="318" height="66" viewBox="0 0 318 66" fill="none" xmlns="http://www.w3.org/2000/svg">
<path d="M0.393404 32.5783C0.393404 27.3977 0.40306 22.2155 0.380529 17.0349C0.37731 16.4475 0.549512 16.0999 1.06934 15.8005C10.1076 10.6007 19.1378 5.3863 28.1631 0.163886C28.5703 -0.0726913 28.8841 -0.0421137 29.2752 0.184808C38.2812 5.39435 47.2921 10.5974 56.3111 15.7861C56.8148 16.0758 57.0304 16.396 57.0288 17.0011C57.0095 27.3864 57.0095 37.7701 57.0288 48.1554C57.0304 48.7589 56.8148 49.0872 56.3127 49.3753C47.3307 54.5381 38.3553 59.7123 29.3879 64.9009C28.905 65.1793 28.551 65.2147 28.0472 64.9234C19.1426 59.7622 10.2283 54.6154 1.30109 49.4928C0.612278 49.0985 0.362824 48.6623 0.369262 47.8544C0.414324 42.7624 0.393404 37.6703 0.393404 32.5783ZM51.2882 32.6378C51.2882 28.5339 51.2769 24.4284 51.3011 20.3245C51.3043 19.7355 51.124 19.3943 50.6042 19.0965C43.486 15.012 36.379 10.9081 29.2784 6.79289C28.8535 6.54666 28.5445 6.54988 28.1213 6.79611C21.0207 10.9097 13.9121 15.0103 6.79549 19.0982C6.31267 19.375 6.09863 19.684 6.10024 20.2585C6.11794 28.4888 6.11472 36.7208 6.10346 44.9511C6.10346 45.4307 6.24186 45.7204 6.67639 45.9698C13.7898 50.0609 20.8968 54.1664 27.9941 58.2864C28.5059 58.5841 28.897 58.5841 29.4088 58.2864C36.4868 54.176 43.5713 50.0802 50.667 46.002C51.1482 45.7252 51.2995 45.4114 51.2979 44.8819C51.2818 40.8005 51.2898 36.7192 51.2882 32.6378Z" fill="url(#paint0_linear_6_168)"/>
<path d="M46.8766 38.4619C46.8766 39.7639 46.8621 41.0643 46.8847 42.3663C46.8927 42.8507 46.7157 43.1388 46.2892 43.3834C40.65 46.6247 35.0171 49.8788 29.3924 53.1474C28.9096 53.4275 28.5233 53.4452 28.0325 53.1603C23.1657 50.331 18.2893 47.5162 13.4081 44.7095C12.9414 44.4423 12.9205 44.2573 13.3904 43.9885C14.9676 43.0873 16.5432 42.1812 18.1091 41.2606C18.4599 41.0546 18.7255 41.1512 19.0393 41.333C22.0649 43.0889 25.1034 44.827 28.1242 46.5925C28.5475 46.8403 28.8597 46.8371 29.2829 46.5909C32.9845 44.4327 36.6941 42.2922 40.415 40.1662C40.8994 39.8894 41.0442 39.5531 41.1199 39.0027C41.305 37.6315 40.7996 36.8461 39.5524 36.2233C37.5889 35.2432 35.7253 34.0619 33.8246 32.9595C33.2195 32.6086 33.2259 32.541 33.8343 32.1886C35.3487 31.3131 36.8711 30.4505 38.3743 29.5556C38.7557 29.3287 39.0454 29.3432 39.422 29.5621C41.6864 30.8882 43.9588 32.2015 46.2425 33.4938C46.7125 33.7609 46.8991 34.0909 46.8863 34.6268C46.8573 35.9046 46.8766 37.1825 46.8766 38.4619Z" fill="#353635"/>
<path d="M10.531 26.7008C10.531 25.4004 10.5439 24.0985 10.5246 22.7981C10.5181 22.3169 10.6936 22.0175 11.1184 21.7745C16.8156 18.4978 22.5048 15.2099 28.1891 11.9139C28.5721 11.6918 28.8714 11.7176 29.2416 11.9316C34.1518 14.777 39.0652 17.6143 43.9867 20.4404C44.5081 20.7397 44.4566 20.9199 43.9738 21.1919C42.4111 22.0755 40.8548 22.9671 39.3146 23.886C38.9268 24.1162 38.6532 23.989 38.3297 23.8023C35.3411 22.0706 32.3428 20.3567 29.3639 18.6073C28.8682 18.316 28.4997 18.3401 28.0169 18.6234C24.3362 20.7703 20.6443 22.8995 16.9444 25.0126C16.4712 25.283 16.2877 25.6 16.3038 26.1375C16.373 28.4116 15.9723 27.7759 17.8537 28.8815C19.7479 29.9952 21.6582 31.0815 23.5621 32.1823C24.1849 32.5428 24.1946 32.604 23.6072 32.9468C22.0767 33.8384 20.5333 34.7107 19.006 35.6071C18.6535 35.8147 18.3638 35.8018 18.0098 35.5958C15.7245 34.2616 13.4327 32.9371 11.1313 31.6303C10.6807 31.3744 10.5181 31.0413 10.5262 30.5392C10.5455 29.2581 10.531 27.9787 10.531 26.7008Z" fill="#353635"/>
<path d="M28.7197 23.4385C28.8854 23.5206 29.048 23.5914 29.2025 23.6799C30.7571 24.5715 32.3069 25.4743 33.8664 26.3563C34.2897 26.5961 34.3476 26.7586 33.8825 27.0209C32.3021 27.9125 30.7298 28.8202 29.1622 29.7343C28.8645 29.9082 28.6183 29.9548 28.2964 29.7649C26.7321 28.8444 25.1565 27.9447 23.5809 27.0435C23.2414 26.8487 23.0531 26.6604 23.5133 26.3933C25.1436 25.4518 26.7723 24.5103 28.4042 23.5704C28.496 23.5157 28.6038 23.4851 28.7197 23.4385Z" fill="url(#paint1_linear_6_168)"/>
<path d="M28.6976 41.7015C28.5302 41.6242 28.3628 41.5615 28.2099 41.473C26.6762 40.591 25.1489 39.6994 23.612 38.8223C23.1742 38.5729 23.0986 38.3781 23.5959 38.0981C25.1747 37.2049 26.7422 36.294 28.3081 35.3783C28.5978 35.2093 28.8376 35.227 29.1192 35.3911C30.6852 36.3053 32.2591 37.2081 33.8299 38.1126C34.1501 38.2961 34.3915 38.4844 33.9103 38.7596C32.2994 39.6866 30.6884 40.612 29.0758 41.5357C28.9615 41.6033 28.8328 41.6436 28.6976 41.7015Z" fill="url(#paint2_linear_6_168)"/>
<path d="M73.6005 31.0348C72.0378 29.8777 71.1977 28.2217 71.0786 26.0667H77.2779C77.3375 26.799 77.5547 27.3333 77.9297 27.668C78.3047 28.0044 78.7907 28.1718 79.383 28.1718C79.9173 28.1718 80.3567 28.0382 80.7027 27.771C81.0487 27.5039 81.2225 27.1337 81.2225 26.6589C81.2225 26.0458 80.936 25.571 80.3615 25.2347C79.7869 24.8983 78.8583 24.5233 77.5724 24.1081C76.2077 23.6526 75.1053 23.2133 74.2652 22.7884C73.4251 22.3635 72.6928 21.7407 72.07 20.9199C71.4472 20.0992 71.1349 19.0273 71.1349 17.7012C71.1349 16.3558 71.4713 15.205 72.144 14.2459C72.8167 13.2867 73.7453 12.5608 74.9331 12.0652C76.1192 11.5711 77.4646 11.3232 78.9678 11.3232C81.3995 11.3232 83.3436 11.8914 84.7969 13.0292C86.2502 14.167 87.0259 15.7635 87.1257 17.8203H80.8073C80.788 17.1878 80.5948 16.713 80.2295 16.396C79.8626 16.0805 79.3942 15.9212 78.8213 15.9212C78.3852 15.9212 78.0295 16.05 77.7527 16.3075C77.4759 16.565 77.3375 16.9303 77.3375 17.4051C77.3375 17.801 77.4904 18.1422 77.7977 18.4286C78.1035 18.7151 78.485 18.9629 78.9404 19.1705C79.3959 19.3782 80.067 19.6405 80.9569 19.9559C82.2815 20.4114 83.3742 20.8604 84.2352 21.3062C85.0962 21.752 85.8366 22.3748 86.4594 23.1747C87.0822 23.9761 87.3944 24.99 87.3944 26.2148C87.3944 27.4604 87.0822 28.5773 86.4594 29.5671C85.8366 30.5569 84.9369 31.3374 83.7605 31.9103C82.584 32.4849 81.1951 32.7697 79.5922 32.7697C77.1588 32.7713 75.1616 32.192 73.6005 31.0348Z" fill="#A11C2F"/>
<path d="M93.3703 31.7332C92.0554 31.0411 91.0222 30.053 90.2706 28.7671C89.519 27.4812 89.144 25.9684 89.144 24.2287C89.144 22.5083 89.5239 21.0051 90.2867 19.7192C91.0479 18.4333 92.086 17.4452 93.4008 16.7531C94.7157 16.0611 96.2044 15.7151 97.8652 15.7151C99.5261 15.7151 101.015 16.0611 102.33 16.7531C103.644 17.4452 104.683 18.4349 105.444 19.7192C106.205 21.0051 106.586 22.5083 106.586 24.2287C106.586 25.9491 106.205 27.4571 105.444 28.7526C104.683 30.0482 103.64 31.0411 102.314 31.7332C100.989 32.4252 99.4955 32.7712 97.8347 32.7712C96.1738 32.7712 94.6851 32.4252 93.3703 31.7332ZM99.8673 26.823C100.411 26.2195 100.683 25.3552 100.683 24.2271C100.683 23.0989 100.411 22.2395 99.8673 21.6456C99.3233 21.0518 98.6554 20.7556 97.8652 20.7556C97.0734 20.7556 96.412 21.0518 95.8777 21.6456C95.3433 22.2395 95.0762 23.0989 95.0762 24.2271C95.0762 25.3745 95.3337 26.2436 95.8471 26.8375C96.3605 27.4313 97.0235 27.7274 97.8347 27.7274C98.6458 27.7274 99.3233 27.4265 99.8673 26.823Z" fill="#A11C2F"/>
<path d="M114.773 10.6121V32.5639H108.958V10.6121H114.773Z" fill="#A11C2F"/>
<path d="M135.122 15.9214V32.5623H129.278V30.1885C128.784 30.9401 128.102 31.5484 127.231 32.0119C126.36 32.477 125.363 32.7087 124.234 32.7087C122.297 32.7087 120.768 32.0714 119.651 30.7952C118.534 29.519 117.976 27.7841 117.976 25.5889V15.9214H123.76V24.8502C123.76 25.7997 124.012 26.5465 124.516 27.0904C125.02 27.6344 125.688 27.9064 126.518 27.9064C127.368 27.9064 128.041 27.6344 128.535 27.0904C129.029 26.5465 129.277 25.7997 129.277 24.8502V15.9214H135.122Z" fill="#A11C2F"/>
<path d="M148.262 27.61V32.5637H145.74C141.489 32.5637 139.363 30.457 139.363 26.2453V20.7573H137.315V15.9212H139.363V11.8865H145.206V15.9212H148.232V20.7557H145.206V26.3322C145.206 26.7877 145.311 27.1144 145.517 27.3107C145.724 27.5087 146.075 27.6068 146.569 27.6068H148.262V27.61Z" fill="#A11C2F"/>
<path d="M151.393 13.5346C150.77 12.9713 150.458 12.2648 150.458 11.4135C150.458 10.5428 150.77 9.82179 151.393 9.24725C152.016 8.67431 152.841 8.38623 153.87 8.38623C154.879 8.38623 155.695 8.6727 156.318 9.24725C156.941 9.82179 157.253 10.5428 157.253 11.4135C157.253 12.2648 156.941 12.9713 156.318 13.5346C155.695 14.0979 154.879 14.3795 153.87 14.3795C152.841 14.3795 152.016 14.0979 151.393 13.5346ZM156.747 15.9213V32.5622H150.933V15.9213H156.747Z" fill="#A11C2F"/>
<path d="M163.347 31.7332C162.032 31.0411 160.999 30.053 160.248 28.7671C159.496 27.4812 159.121 25.9684 159.121 24.2287C159.121 22.5083 159.501 21.0051 160.264 19.7192C161.025 18.4333 162.063 17.4452 163.378 16.7531C164.693 16.0611 166.181 15.7151 167.842 15.7151C169.503 15.7151 170.992 16.0611 172.307 16.7531C173.622 17.4452 174.66 18.4349 175.421 19.7192C176.182 21.0051 176.563 22.5083 176.563 24.2287C176.563 25.9491 176.182 27.4571 175.421 28.7526C174.66 30.0482 173.617 31.0411 172.291 31.7332C170.966 32.4252 169.473 32.7712 167.812 32.7712C166.149 32.7712 164.662 32.4252 163.347 31.7332ZM169.843 26.823C170.387 26.2195 170.659 25.3552 170.659 24.2271C170.659 23.0989 170.387 22.2395 169.843 21.6456C169.299 21.0518 168.631 20.7556 167.841 20.7556C167.049 20.7556 166.387 21.0518 165.853 21.6456C165.319 22.2395 165.052 23.0989 165.052 24.2271C165.052 25.3745 165.309 26.2436 165.823 26.8375C166.336 27.4313 166.999 27.7274 167.81 27.7274C168.621 27.7274 169.299 27.4265 169.843 26.823Z" fill="#A11C2F"/>
<path d="M194.389 17.6867C195.515 18.963 196.08 20.6882 196.08 22.8625V32.5622H190.265V23.6334C190.265 22.6838 190.017 21.9371 189.523 21.3931C189.029 20.8492 188.366 20.5772 187.536 20.5772C186.665 20.5772 185.983 20.8492 185.489 21.3931C184.995 21.9371 184.747 22.6838 184.747 23.6334V32.5622H178.932V15.9213H184.747V18.2951C185.26 17.5435 185.952 16.9352 186.823 16.4701C187.694 16.0049 188.691 15.7732 189.82 15.7732C191.74 15.7732 193.262 16.4105 194.389 17.6867Z" fill="#A11C2F"/>
<path d="M202.354 32.0152C201.177 31.5114 200.247 30.8194 199.565 29.9391C198.882 29.0587 198.501 28.0658 198.422 26.9585H204.058C204.137 27.4928 204.385 27.908 204.8 28.2042C205.215 28.5003 205.728 28.6483 206.342 28.6483C206.816 28.6483 207.191 28.5502 207.468 28.3522C207.745 28.1543 207.883 27.8968 207.883 27.5813C207.883 27.1661 207.656 26.8603 207.201 26.6624C206.746 26.4644 205.994 26.2472 204.946 26.0106C203.76 25.774 202.77 25.5069 201.98 25.2091C201.188 24.913 200.501 24.4286 199.919 23.7559C199.336 23.0831 199.043 22.1738 199.043 21.0264C199.043 20.0382 199.31 19.1434 199.845 18.3419C200.379 17.5405 201.164 16.9031 202.202 16.4284C203.24 15.9536 204.491 15.717 205.955 15.717C208.131 15.717 209.842 16.2514 211.088 17.3184C212.333 18.387 213.056 19.7904 213.254 21.5301H208.004C207.904 20.9958 207.673 20.5854 207.307 20.2989C206.94 20.0125 206.451 19.8692 205.839 19.8692C205.365 19.8692 205.004 19.9577 204.756 20.1364C204.509 20.315 204.386 20.5613 204.386 20.8783C204.386 21.2742 204.613 21.5752 205.069 21.7828C205.522 21.9904 206.255 22.2028 207.264 22.4201C208.469 22.6776 209.473 22.964 210.275 23.2795C211.076 23.5965 211.778 24.1051 212.382 24.8068C212.985 25.5085 213.286 26.4628 213.286 27.6698C213.286 28.6387 213.004 29.5094 212.441 30.2802C211.878 31.0511 211.076 31.6595 210.038 32.1037C209 32.5495 207.779 32.7716 206.375 32.7716C204.871 32.7716 203.53 32.5189 202.354 32.0152Z" fill="#A11C2F"/>
<path d="M225.122 11.8882V32.5638H222.423V11.8882H225.122Z" fill="#010101"/>
<path d="M242.444 17.8059C243.671 19.0033 244.284 20.7285 244.284 22.9817V32.5639H241.614V23.3679C241.614 21.7473 241.208 20.5048 240.397 19.6454C239.586 18.786 238.479 18.3547 237.076 18.3547C235.651 18.3547 234.52 18.7989 233.68 19.6889C232.84 20.5789 232.42 21.8744 232.42 23.5755V32.5639H229.721V16.3076H232.42V18.6219C232.954 17.7914 233.68 17.1493 234.6 16.6938C235.519 16.2384 236.533 16.0115 237.64 16.0115C239.615 16.0115 241.218 16.6102 242.444 17.8059Z" fill="#010101"/>
<path d="M261.429 17.8059C262.655 19.0033 263.268 20.7285 263.268 22.9817V32.5639H260.598V23.3679C260.598 21.7473 260.193 20.5048 259.382 19.6454C258.571 18.786 257.463 18.3547 256.06 18.3547C254.636 18.3547 253.504 18.7989 252.664 19.6889C251.824 20.5789 251.404 21.8744 251.404 23.5755V32.5639H248.705V16.3076H251.404V18.6219C251.938 17.7914 252.664 17.1493 253.585 16.6938C254.504 16.2384 255.518 16.0115 256.625 16.0115C258.601 16.0115 260.202 16.6102 261.429 17.8059Z" fill="#010101"/>
<path d="M270.639 31.7931C269.403 31.101 268.434 30.1177 267.733 28.8415C267.031 27.5652 266.68 26.0878 266.68 24.406C266.68 22.7452 267.041 21.2758 267.763 20.0012C268.484 18.725 269.469 17.7465 270.715 17.0641C271.961 16.3817 273.354 16.0405 274.898 16.0405C276.439 16.0405 277.835 16.3817 279.08 17.0641C280.326 17.7465 281.309 18.7201 282.032 19.9867C282.753 21.2533 283.115 22.7259 283.115 24.406C283.115 26.0878 282.745 27.5652 282.003 28.8415C281.261 30.1177 280.257 31.101 278.992 31.7931C277.725 32.4851 276.322 32.8311 274.78 32.8311C273.254 32.8311 271.875 32.4851 270.639 31.7931ZM277.506 29.7749C278.356 29.3195 279.043 28.6387 279.568 27.7278C280.091 26.8185 280.353 25.7112 280.353 24.406C280.353 23.1008 280.096 21.9936 279.583 21.0843C279.068 20.175 278.396 19.4975 277.566 19.0533C276.736 18.6075 275.836 18.3854 274.867 18.3854C273.877 18.3854 272.973 18.6075 272.152 19.0533C271.331 19.4975 270.673 20.175 270.179 21.0843C269.685 21.9936 269.437 23.1008 269.437 24.406C269.437 25.7306 269.678 26.8491 270.164 27.7584C270.649 28.6677 271.296 29.3452 272.107 29.791C272.918 30.2352 273.808 30.4589 274.777 30.4589C275.746 30.4573 276.657 30.2304 277.506 29.7749Z" fill="#010101"/>
<path d="M292.725 30.071L297.767 16.3076H300.644L294.267 32.5639H291.122L284.744 16.3076H287.65L292.725 30.071Z" fill="#010101"/>
<path d="M304.233 19.5117C303.639 18.6813 303.343 17.6722 303.343 16.4861C303.343 15.4175 303.61 14.4535 304.145 13.5941C304.679 12.733 305.474 12.0523 306.533 11.5469C307.59 11.0432 308.871 10.7905 310.375 10.7905C311.878 10.7905 313.157 11.0432 314.216 11.5469C315.274 12.0507 316.075 12.733 316.619 13.5941C317.163 14.4535 317.435 15.4175 317.435 16.4861C317.435 17.6336 317.128 18.6362 316.516 19.4972C315.903 20.3566 315.063 20.9956 313.994 21.4108C315.22 21.7858 316.194 22.444 316.917 23.3839C317.638 24.3237 318 25.4551 318 26.7796C318 28.0655 317.683 29.1873 317.05 30.1465C316.418 31.1056 315.523 31.8476 314.366 32.3706C313.209 32.8937 311.879 33.156 310.376 33.156C308.873 33.156 307.553 32.8937 306.416 32.3706C305.278 31.8476 304.393 31.1056 303.76 30.1465C303.128 29.1873 302.811 28.0655 302.811 26.7796C302.811 25.4551 303.166 24.3173 303.879 23.3678C304.591 22.4182 305.559 21.7664 306.786 21.4092C305.677 20.9746 304.827 20.3422 304.233 19.5117ZM306.784 23.6188C305.854 24.3012 305.39 25.3248 305.39 26.6895C305.39 27.9561 305.839 28.9732 306.741 29.7441C307.64 30.515 308.852 30.9012 310.375 30.9012C311.897 30.9012 313.104 30.515 313.994 29.7441C314.884 28.9732 315.328 27.9545 315.328 26.6895C315.328 25.365 314.873 24.3511 313.964 23.6494C313.054 22.9477 311.857 22.5969 310.375 22.5969C308.91 22.5969 307.714 22.9381 306.784 23.6188ZM313.637 14.0238C312.845 13.3704 311.757 13.0453 310.373 13.0453C309.008 13.0453 307.93 13.372 307.14 14.0238C306.348 14.6756 305.954 15.6154 305.954 16.8418C305.954 17.949 306.364 18.839 307.185 19.5117C308.006 20.1844 309.069 20.5208 310.373 20.5208C311.697 20.5208 312.771 20.1796 313.592 19.4972C314.413 18.8149 314.823 17.92 314.823 16.8128C314.823 15.6058 314.427 14.6756 313.637 14.0238Z" fill="#010101"/>
<path d="M77.5967 40.6734C78.2984 41.0307 78.8359 41.5408 79.2109 42.2055C79.5843 42.8702 79.7726 43.6507 79.7726 44.5504C79.7726 45.45 79.5859 46.2289 79.2109 46.8888C78.8359 47.5486 78.2984 48.0523 77.5967 48.4016C76.895 48.7508 76.0646 48.9246 75.107 48.9246H72.3711V40.1375H75.107C76.0646 40.1375 76.895 40.3161 77.5967 40.6734ZM77.7046 47.0771C78.3016 46.4768 78.5994 45.6335 78.5994 44.5487C78.5994 43.456 78.2984 42.603 77.6981 41.9898C77.0978 41.3767 76.2336 41.0693 75.107 41.0693H73.5186V47.9783H75.107C76.2416 47.9783 77.1075 47.679 77.7046 47.0771Z" fill="black"/>
<path d="M89.3163 40.667C89.165 40.5157 89.0894 40.3306 89.0894 40.1117C89.0894 39.8929 89.165 39.7078 89.3163 39.5565C89.4676 39.4052 89.6526 39.3296 89.8715 39.3296C90.0807 39.3296 90.261 39.4052 90.4074 39.5565C90.5539 39.7078 90.6279 39.8929 90.6279 40.1117C90.6279 40.3306 90.5539 40.5157 90.4074 40.667C90.261 40.8183 90.0823 40.8939 89.8715 40.8939C89.651 40.8939 89.4676 40.8183 89.3163 40.667ZM90.4251 42.0156V48.9247H89.2776V42.0156H90.4251Z" fill="black"/>
<path d="M104.792 42.2923C105.241 42.553 105.576 42.8813 105.795 43.2756V42.0155H106.955V49.0758C106.955 49.7067 106.82 50.2668 106.551 50.7592C106.282 51.2501 105.898 51.6347 105.397 51.9131C104.897 52.19 104.316 52.3284 103.651 52.3284C102.743 52.3284 101.987 52.1143 101.382 51.6846C100.777 51.2565 100.419 50.6723 100.31 49.932H101.445C101.57 50.3521 101.831 50.69 102.227 50.9475C102.621 51.2034 103.097 51.3322 103.651 51.3322C104.282 51.3322 104.797 51.1342 105.196 50.7399C105.595 50.344 105.795 49.7904 105.795 49.0758V47.6258C105.568 48.0297 105.231 48.3661 104.786 48.6349C104.34 48.9036 103.818 49.0388 103.223 49.0388C102.61 49.0388 102.053 48.8875 101.552 48.585C101.052 48.2824 100.659 47.8575 100.374 47.3119C100.088 46.7664 99.9463 46.1435 99.9463 45.4467C99.9463 44.7402 100.09 44.1206 100.374 43.5863C100.659 43.0519 101.054 42.6383 101.552 42.3438C102.053 42.0493 102.61 41.9028 103.223 41.9028C103.818 41.9012 104.341 42.0316 104.792 42.2923ZM105.478 44.0948C105.267 43.7086 104.984 43.4124 104.626 43.2064C104.269 43.0004 103.876 42.8974 103.447 42.8974C103.019 42.8974 102.628 42.9988 102.273 43.2C101.921 43.4012 101.639 43.6957 101.429 44.0819C101.218 44.4682 101.113 44.922 101.113 45.4435C101.113 45.9729 101.218 46.4332 101.429 46.8243C101.638 47.2154 101.921 47.5131 102.273 47.7191C102.626 47.9251 103.017 48.0281 103.447 48.0281C103.875 48.0281 104.267 47.9251 104.626 47.7191C104.984 47.5131 105.267 47.2154 105.478 46.8243C105.689 46.4332 105.793 45.9778 105.793 45.4563C105.793 44.9365 105.689 44.4827 105.478 44.0948Z" fill="black"/>
<path d="M116.926 40.667C116.775 40.5157 116.699 40.3306 116.699 40.1117C116.699 39.8929 116.775 39.7078 116.926 39.5565C117.077 39.4052 117.262 39.3296 117.481 39.3296C117.691 39.3296 117.871 39.4052 118.017 39.5565C118.164 39.7078 118.238 39.8929 118.238 40.1117C118.238 40.3306 118.164 40.5157 118.017 40.667C117.871 40.8183 117.692 40.8939 117.481 40.8939C117.261 40.8939 117.077 40.8183 116.926 40.667ZM118.035 42.0156V48.9247H116.888V42.0156H118.035Z" fill="black"/>
<path d="M129.382 42.9602V47.0319C129.382 47.3683 129.452 47.6049 129.596 47.7449C129.739 47.8833 129.987 47.9525 130.339 47.9525H131.184V48.9229H130.151C129.512 48.9229 129.032 48.7765 128.714 48.482C128.393 48.1875 128.234 47.7046 128.234 47.0319V42.9602H127.339V42.0139H128.234V40.2742H129.382V42.0139H131.184V42.9602H129.382Z" fill="black"/>
<path d="M140.565 43.5845C140.85 43.0502 141.244 42.6366 141.743 42.3421C142.244 42.0476 142.8 41.9011 143.414 41.9011C144.019 41.9011 144.543 42.0315 144.989 42.2922C145.435 42.5529 145.766 42.8812 145.985 43.2755V42.0154H147.146V48.9244H145.985V47.6385C145.758 48.0425 145.42 48.3756 144.97 48.6412C144.519 48.9067 143.998 49.0387 143.401 49.0387C142.788 49.0387 142.232 48.8874 141.737 48.5848C141.241 48.2823 140.85 47.8574 140.563 47.3118C140.277 46.7663 140.135 46.1434 140.135 45.4466C140.137 44.7384 140.278 44.1188 140.565 43.5845ZM145.671 44.0947C145.461 43.7084 145.177 43.4123 144.82 43.2063C144.463 43.0003 144.07 42.8973 143.64 42.8973C143.212 42.8973 142.821 42.9987 142.467 43.1999C142.115 43.4011 141.833 43.6956 141.622 44.0818C141.411 44.4681 141.307 44.9219 141.307 45.4433C141.307 45.9728 141.411 46.4331 141.622 46.8242C141.832 47.2153 142.115 47.513 142.467 47.719C142.82 47.925 143.211 48.028 143.64 48.028C144.069 48.028 144.461 47.925 144.82 47.719C145.177 47.513 145.461 47.2153 145.671 46.8242C145.882 46.4331 145.987 45.9777 145.987 45.4562C145.987 44.9364 145.881 44.4826 145.671 44.0947Z" fill="black"/>
<path d="M158.228 39.595V48.9245H157.08V39.595H158.228Z" fill="black"/>
<path d="M180.682 40.1375V48.9246H179.534V40.1375H180.682Z" fill="black"/>
<path d="M196.038 42.6513C196.56 43.1598 196.82 43.8937 196.82 44.8513V48.923H195.686V45.0138C195.686 44.325 195.514 43.7971 195.169 43.4318C194.825 43.0665 194.353 42.883 193.758 42.883C193.153 42.883 192.672 43.0713 192.314 43.4511C191.957 43.8293 191.778 44.3797 191.778 45.1023V48.923H190.631V42.014H191.778V42.9973C192.005 42.6448 192.314 42.3712 192.705 42.1781C193.096 41.985 193.526 41.8884 193.998 41.8884C194.836 41.89 195.517 42.1443 196.038 42.6513Z" fill="black"/>
<path d="M212.1 42.6513C212.621 43.1598 212.882 43.8937 212.882 44.8513V48.923H211.747V45.0138C211.747 44.325 211.575 43.7971 211.231 43.4318C210.886 43.0665 210.415 42.883 209.819 42.883C209.214 42.883 208.733 43.0713 208.376 43.4511C208.019 43.8293 207.84 44.3797 207.84 45.1023V48.923H206.692V42.014H207.84V42.9973C208.067 42.6448 208.376 42.3712 208.767 42.1781C209.158 41.985 209.588 41.8884 210.059 41.8884C210.898 41.89 211.578 42.1443 212.1 42.6513Z" fill="black"/>
<path d="M224.008 48.5963C223.483 48.3018 223.071 47.8834 222.772 47.3426C222.474 46.8003 222.324 46.1726 222.324 45.458C222.324 44.7515 222.477 44.1287 222.785 43.5863C223.092 43.044 223.509 42.6288 224.038 42.3391C224.568 42.0494 225.16 41.9045 225.817 41.9045C226.473 41.9045 227.065 42.0494 227.595 42.3391C228.124 42.6288 228.543 43.0424 228.849 43.5815C229.156 44.119 229.309 44.7451 229.309 45.4596C229.309 46.1742 229.151 46.8019 228.836 47.3442C228.52 47.8866 228.094 48.305 227.556 48.5979C227.019 48.8924 226.422 49.0389 225.767 49.0389C225.12 49.0373 224.532 48.8908 224.008 48.5963ZM226.927 47.7385C227.289 47.5454 227.58 47.2557 227.803 46.8678C228.025 46.4816 228.137 46.0101 228.137 45.4564C228.137 44.9012 228.028 44.4313 227.809 44.045C227.59 43.6588 227.305 43.3707 226.951 43.1808C226.599 42.9925 226.216 42.8975 225.804 42.8975C225.384 42.8975 224.999 42.9925 224.65 43.1808C224.301 43.3707 224.021 43.6571 223.811 44.045C223.6 44.4313 223.496 44.9028 223.496 45.4564C223.496 46.0197 223.599 46.4945 223.805 46.8807C224.011 47.267 224.286 47.555 224.63 47.745C224.975 47.9333 225.353 48.0282 225.765 48.0282C226.179 48.0298 226.565 47.9332 226.927 47.7385Z" fill="black"/>
<path d="M241.387 47.8657L243.531 42.0156H244.754L242.044 48.9247H240.708L237.998 42.0156H239.234L241.387 47.8657Z" fill="black"/>
<path d="M253.882 43.5845C254.167 43.0502 254.561 42.6366 255.06 42.3421C255.561 42.0476 256.118 41.9011 256.731 41.9011C257.336 41.9011 257.861 42.0315 258.307 42.2922C258.752 42.5529 259.084 42.8812 259.303 43.2755V42.0154H260.463V48.9244H259.303V47.6385C259.076 48.0425 258.738 48.3756 258.287 48.6412C257.837 48.9067 257.315 49.0387 256.718 49.0387C256.105 49.0387 255.55 48.8874 255.054 48.5848C254.558 48.2823 254.167 47.8574 253.881 47.3118C253.594 46.7663 253.453 46.1434 253.453 45.4466C253.453 44.7384 253.596 44.1188 253.882 43.5845ZM258.987 44.0947C258.776 43.7084 258.493 43.4123 258.136 43.2063C257.779 43.0003 257.386 42.8973 256.956 42.8973C256.528 42.8973 256.137 42.9987 255.783 43.1999C255.431 43.4011 255.149 43.6956 254.938 44.0818C254.727 44.4681 254.623 44.9219 254.623 45.4433C254.623 45.9728 254.727 46.4331 254.938 46.8242C255.147 47.2153 255.431 47.513 255.783 47.719C256.135 47.925 256.527 48.028 256.956 48.028C257.384 48.028 257.777 47.925 258.136 47.719C258.493 47.513 258.776 47.2153 258.987 46.8242C259.198 46.4331 259.303 45.9777 259.303 45.4562C259.303 44.9364 259.198 44.4826 258.987 44.0947Z" fill="black"/>
<path d="M271.796 42.9602V47.0319C271.796 47.3683 271.867 47.6049 272.01 47.7449C272.153 47.8833 272.401 47.9525 272.754 47.9525H273.599V48.9229H272.565C271.927 48.9229 271.447 48.7765 271.128 48.482C270.808 48.1875 270.649 47.7046 270.649 47.0319V42.9602H269.754V42.0139H270.649V40.2742H271.796V42.0139H273.599V42.9602H271.796Z" fill="black"/>
<path d="M284.233 48.5963C283.709 48.3018 283.297 47.8834 282.997 47.3426C282.7 46.8003 282.55 46.1726 282.55 45.458C282.55 44.7515 282.703 44.1287 283.01 43.5863C283.318 43.044 283.735 42.6288 284.264 42.3391C284.793 42.0494 285.386 41.9045 286.042 41.9045C286.699 41.9045 287.291 42.0494 287.821 42.3391C288.35 42.6288 288.769 43.0424 289.074 43.5815C289.382 44.119 289.535 44.7451 289.535 45.4596C289.535 46.1742 289.377 46.8019 289.062 47.3442C288.746 47.8866 288.32 48.305 287.782 48.5979C287.245 48.8924 286.648 49.0389 285.992 49.0389C285.346 49.0373 284.76 48.8908 284.233 48.5963ZM287.153 47.7385C287.515 47.5454 287.806 47.2557 288.028 46.8678C288.25 46.4816 288.363 46.0101 288.363 45.4564C288.363 44.9012 288.254 44.4313 288.035 44.045C287.816 43.6588 287.531 43.3707 287.177 43.1808C286.825 42.9925 286.442 42.8975 286.03 42.8975C285.609 42.8975 285.225 42.9925 284.876 43.1808C284.526 43.3707 284.246 43.6571 284.037 44.045C283.826 44.4313 283.722 44.9028 283.722 45.4564C283.722 46.0197 283.825 46.4945 284.031 46.8807C284.237 47.267 284.512 47.555 284.856 47.745C285.201 47.9333 285.579 48.0282 285.991 48.0282C286.404 48.0298 286.791 47.9332 287.153 47.7385Z" fill="black"/>
<path d="M301.053 42.2167C301.426 41.9979 301.883 41.8884 302.421 41.8884V43.0729H302.118C300.832 43.0729 300.189 43.7714 300.189 45.1651V48.9214H299.041V42.0124H300.189V43.1341C300.392 42.743 300.678 42.4356 301.053 42.2167Z" fill="black"/>
<path d="M312.758 48.7668C312.338 48.5866 312.006 48.3339 311.762 48.0104C311.519 47.6869 311.384 47.3152 311.358 46.8951H312.542C312.576 47.2395 312.737 47.5212 313.028 47.74C313.318 47.9589 313.698 48.0683 314.169 48.0683C314.606 48.0683 314.952 47.9718 315.203 47.7787C315.455 47.5855 315.581 47.3425 315.581 47.048C315.581 46.7454 315.446 46.5201 315.177 46.3737C314.908 46.2272 314.491 46.0824 313.928 45.9391C313.415 45.8056 312.996 45.6688 312.674 45.5287C312.351 45.3903 312.074 45.1843 311.842 44.9107C311.611 44.6372 311.496 44.2783 311.496 43.8325C311.496 43.48 311.601 43.1565 311.812 42.862C312.021 42.5675 312.32 42.3341 312.707 42.1619C313.093 41.9897 313.534 41.9028 314.031 41.9028C314.796 41.9028 315.414 42.096 315.885 42.4822C316.355 42.8685 316.608 43.3979 316.641 44.0707H315.494C315.468 43.7085 315.323 43.4189 315.059 43.2C314.796 42.9811 314.44 42.8717 313.994 42.8717C313.582 42.8717 313.254 42.9602 313.011 43.1372C312.766 43.3143 312.645 43.5444 312.645 43.8309C312.645 44.0578 312.719 44.2445 312.866 44.3925C313.012 44.5406 313.197 44.6581 313.421 44.745C313.643 44.8335 313.952 44.9317 314.348 45.0411C314.844 45.1763 315.248 45.3083 315.558 45.4386C315.869 45.569 316.136 45.7637 316.358 46.0244C316.58 46.2852 316.696 46.6247 316.704 47.0448C316.704 47.423 316.6 47.7642 316.389 48.0667C316.178 48.3693 315.882 48.6075 315.5 48.7797C315.117 48.9519 314.678 49.0388 314.182 49.0388C313.654 49.0372 313.18 48.9471 312.758 48.7668Z" fill="black"/>
<defs>
<linearGradient id="paint0_linear_6_168" x1="0.371402" y1="32.5633" x2="57.0297" y2="32.5633" gradientUnits="userSpaceOnUse">
<stop offset="0.0659" stop-color="#A61E2C"/>
<stop offset="1" stop-color="#660D21"/>
</linearGradient>
<linearGradient id="paint1_linear_6_168" x1="23.2368" y1="26.662" x2="34.207" y2="26.662" gradientUnits="userSpaceOnUse">
<stop offset="0.0659" stop-color="#A61E2C"/>
<stop offset="1" stop-color="#660D21"/>
</linearGradient>
<linearGradient id="paint2_linear_6_168" x1="23.254" y1="38.4809" x2="34.1825" y2="38.4809" gradientUnits="userSpaceOnUse">
<stop offset="0.0659" stop-color="#A61E2C"/>
<stop offset="1" stop-color="#660D21"/>
</linearGradient>
</defs>
</svg>
