<svg width="58" height="66" viewBox="0 0 58 66" fill="none" xmlns="http://www.w3.org/2000/svg">
<path d="M0.393404 32.5783C0.393404 27.3977 0.40306 22.2155 0.380529 17.0349C0.37731 16.4475 0.549512 16.0999 1.06934 15.8005C10.1076 10.6007 19.1378 5.3863 28.1631 0.163886C28.5703 -0.0726913 28.8841 -0.0421137 29.2752 0.184808C38.2812 5.39435 47.2921 10.5974 56.3111 15.7861C56.8148 16.0758 57.0304 16.396 57.0288 17.0011C57.0095 27.3864 57.0095 37.7701 57.0288 48.1554C57.0304 48.7589 56.8148 49.0872 56.3127 49.3753C47.3307 54.5381 38.3553 59.7123 29.3879 64.9009C28.905 65.1793 28.551 65.2147 28.0472 64.9234C19.1426 59.7622 10.2283 54.6154 1.30109 49.4928C0.612278 49.0985 0.362824 48.6623 0.369262 47.8544C0.414324 42.7624 0.393404 37.6703 0.393404 32.5783ZM51.2882 32.6378C51.2882 28.5339 51.2769 24.4284 51.3011 20.3245C51.3043 19.7355 51.124 19.3943 50.6042 19.0965C43.486 15.012 36.379 10.9081 29.2784 6.79289C28.8535 6.54666 28.5445 6.54988 28.1213 6.79611C21.0207 10.9097 13.9121 15.0103 6.79549 19.0982C6.31267 19.375 6.09863 19.684 6.10024 20.2585C6.11794 28.4888 6.11472 36.7208 6.10346 44.9511C6.10346 45.4307 6.24186 45.7204 6.67639 45.9698C13.7898 50.0609 20.8968 54.1664 27.9941 58.2864C28.5059 58.5841 28.897 58.5841 29.4088 58.2864C36.4868 54.176 43.5713 50.0802 50.667 46.002C51.1482 45.7252 51.2995 45.4114 51.2979 44.8819C51.2818 40.8005 51.2898 36.7192 51.2882 32.6378Z" fill="url(#paint0_linear_6_169)"/>
<path d="M46.8766 38.4619C46.8766 39.7639 46.8621 41.0643 46.8847 42.3663C46.8927 42.8507 46.7157 43.1388 46.2892 43.3834C40.65 46.6247 35.0171 49.8788 29.3924 53.1474C28.9096 53.4275 28.5233 53.4452 28.0325 53.1603C23.1657 50.331 18.2893 47.5162 13.4081 44.7095C12.9414 44.4423 12.9205 44.2573 13.3904 43.9885C14.9676 43.0873 16.5432 42.1812 18.1091 41.2606C18.4599 41.0546 18.7255 41.1512 19.0393 41.333C22.0649 43.0889 25.1034 44.827 28.1242 46.5925C28.5475 46.8403 28.8597 46.8371 29.2829 46.5909C32.9845 44.4327 36.6941 42.2922 40.415 40.1662C40.8994 39.8894 41.0442 39.5531 41.1199 39.0027C41.305 37.6315 40.7996 36.8461 39.5524 36.2233C37.5889 35.2432 35.7253 34.0619 33.8246 32.9595C33.2195 32.6086 33.2259 32.541 33.8343 32.1886C35.3487 31.3131 36.8711 30.4505 38.3743 29.5556C38.7557 29.3287 39.0454 29.3432 39.422 29.5621C41.6864 30.8882 43.9588 32.2015 46.2425 33.4938C46.7125 33.7609 46.8991 34.0909 46.8863 34.6268C46.8573 35.9046 46.8766 37.1825 46.8766 38.4619Z" fill="#353635"/>
<path d="M10.531 26.7008C10.531 25.4004 10.5439 24.0985 10.5246 22.7981C10.5181 22.3169 10.6936 22.0175 11.1184 21.7745C16.8156 18.4978 22.5048 15.2099 28.1891 11.9139C28.5721 11.6918 28.8714 11.7176 29.2416 11.9316C34.1518 14.777 39.0652 17.6143 43.9867 20.4404C44.5081 20.7397 44.4566 20.9199 43.9738 21.1919C42.4111 22.0755 40.8548 22.9671 39.3146 23.886C38.9268 24.1162 38.6532 23.989 38.3297 23.8023C35.3411 22.0706 32.3428 20.3567 29.3639 18.6073C28.8682 18.316 28.4997 18.3401 28.0169 18.6234C24.3362 20.7703 20.6443 22.8995 16.9444 25.0126C16.4712 25.283 16.2877 25.6 16.3038 26.1375C16.373 28.4116 15.9723 27.7759 17.8537 28.8815C19.7479 29.9952 21.6582 31.0815 23.5621 32.1823C24.1849 32.5428 24.1946 32.604 23.6072 32.9468C22.0767 33.8384 20.5333 34.7107 19.006 35.6071C18.6535 35.8147 18.3638 35.8018 18.0098 35.5958C15.7245 34.2616 13.4327 32.9371 11.1313 31.6303C10.6807 31.3744 10.5181 31.0413 10.5262 30.5392C10.5455 29.2581 10.531 27.9787 10.531 26.7008Z" fill="#353635"/>
<path d="M28.7197 23.4385C28.8854 23.5206 29.048 23.5914 29.2025 23.6799C30.7571 24.5715 32.3069 25.4743 33.8664 26.3563C34.2897 26.5961 34.3476 26.7586 33.8825 27.0209C32.3021 27.9125 30.7298 28.8202 29.1622 29.7343C28.8645 29.9082 28.6183 29.9548 28.2964 29.7649C26.7321 28.8444 25.1565 27.9447 23.5809 27.0435C23.2414 26.8487 23.0531 26.6604 23.5133 26.3933C25.1436 25.4518 26.7723 24.5103 28.4042 23.5704C28.496 23.5157 28.6038 23.4851 28.7197 23.4385Z" fill="url(#paint1_linear_6_169)"/>
<path d="M28.6976 41.7015C28.5302 41.6242 28.3628 41.5615 28.2099 41.473C26.6762 40.591 25.1489 39.6994 23.612 38.8223C23.1742 38.5729 23.0986 38.3781 23.5959 38.0981C25.1747 37.2049 26.7422 36.294 28.3081 35.3783C28.5978 35.2093 28.8376 35.227 29.1192 35.3911C30.6852 36.3053 32.2591 37.2081 33.8299 38.1126C34.1501 38.2961 34.3915 38.4844 33.9103 38.7596C32.2994 39.6866 30.6884 40.612 29.0758 41.5357C28.9615 41.6033 28.8328 41.6436 28.6976 41.7015Z" fill="url(#paint2_linear_6_169)"/>
<defs>
<linearGradient id="paint0_linear_6_169" x1="0.371402" y1="32.5633" x2="57.0297" y2="32.5633" gradientUnits="userSpaceOnUse">
<stop offset="0.0659" stop-color="#A61E2C"/>
<stop offset="1" stop-color="#660D21"/>
</linearGradient>
<linearGradient id="paint1_linear_6_169" x1="23.2368" y1="26.662" x2="34.207" y2="26.662" gradientUnits="userSpaceOnUse">
<stop offset="0.0659" stop-color="#A61E2C"/>
<stop offset="1" stop-color="#660D21"/>
</linearGradient>
<linearGradient id="paint2_linear_6_169" x1="23.254" y1="38.4809" x2="34.1825" y2="38.4809" gradientUnits="userSpaceOnUse">
<stop offset="0.0659" stop-color="#A61E2C"/>
<stop offset="1" stop-color="#660D21"/>
</linearGradient>
</defs>
</svg>
