<svg width="1975" height="406" viewBox="0 0 1975 406" fill="none" xmlns="http://www.w3.org/2000/svg">
<path d="M0.989629 203.41C0.989629 171.22 1.04963 139.02 0.909627 106.83C0.889627 103.18 1.95963 101.02 5.18963 99.16C61.3496 66.85 117.46 34.45 173.54 2.00001C176.07 0.530015 178.02 0.720012 180.45 2.13001C236.41 34.5 292.4 66.83 348.44 99.07C351.57 100.87 352.91 102.86 352.9 106.62C352.78 171.15 352.78 235.67 352.9 300.2C352.91 303.95 351.57 305.99 348.45 307.78C292.64 339.86 236.87 372.01 181.15 404.25C178.15 405.98 175.95 406.2 172.82 404.39C117.49 372.32 62.0996 340.34 6.62963 308.51C2.34963 306.06 0.79962 303.35 0.83962 298.33C1.11962 266.69 0.989629 235.05 0.989629 203.41ZM317.23 203.78C317.23 178.28 317.16 152.77 317.31 127.27C317.33 123.61 316.21 121.49 312.98 119.64C268.75 94.26 224.59 68.76 180.47 43.19C177.83 41.66 175.91 41.68 173.28 43.21C129.16 68.77 84.9896 94.25 40.7696 119.65C37.7696 121.37 36.4396 123.29 36.4496 126.86C36.5596 178 36.5396 229.15 36.4696 280.29C36.4696 283.27 37.3296 285.07 40.0296 286.62C84.2296 312.04 128.39 337.55 172.49 363.15C175.67 365 178.1 365 181.28 363.15C225.26 337.61 269.28 312.16 313.37 286.82C316.36 285.1 317.3 283.15 317.29 279.86C317.19 254.5 317.24 229.14 317.23 203.78Z" fill="white"/>
<path d="M289.82 239.97C289.82 248.06 289.73 256.14 289.87 264.23C289.92 267.24 288.82 269.03 286.17 270.55C251.13 290.69 216.13 310.91 181.18 331.22C178.18 332.96 175.78 333.07 172.73 331.3C142.49 313.72 112.19 296.23 81.8595 278.79C78.9595 277.13 78.8295 275.98 81.7495 274.31C91.5495 268.71 101.34 263.08 111.07 257.36C113.25 256.08 114.9 256.68 116.85 257.81C135.65 268.72 154.53 279.52 173.3 290.49C175.93 292.03 177.87 292.01 180.5 290.48C203.5 277.07 226.55 263.77 249.67 250.56C252.68 248.84 253.58 246.75 254.05 243.33C255.2 234.81 252.06 229.93 244.31 226.06C232.11 219.97 220.53 212.63 208.72 205.78C204.96 203.6 205 203.18 208.78 200.99C218.19 195.55 227.65 190.19 236.99 184.63C239.36 183.22 241.16 183.31 243.5 184.67C257.57 192.91 271.69 201.07 285.88 209.1C288.8 210.76 289.96 212.81 289.88 216.14C289.7 224.08 289.82 232.02 289.82 239.97Z" fill="white"/>
<path d="M63.9795 166.89C63.9795 158.81 64.0595 150.72 63.9395 142.64C63.8995 139.65 64.9895 137.79 67.6295 136.28C103.03 115.92 138.38 95.4899 173.7 75.0099C176.08 73.6299 177.94 73.7899 180.24 75.1199C210.75 92.7999 241.28 110.43 271.86 127.99C275.1 129.85 274.78 130.97 271.78 132.66C262.07 138.15 252.4 143.69 242.83 149.4C240.42 150.83 238.72 150.04 236.71 148.88C218.14 138.12 199.51 127.47 181 116.6C177.92 114.79 175.63 114.94 172.63 116.7C149.76 130.04 126.82 143.27 103.83 156.4C100.89 158.08 99.7495 160.05 99.8495 163.39C100.28 177.52 97.7895 173.57 109.48 180.44C121.25 187.36 133.12 194.11 144.95 200.95C148.82 203.19 148.88 203.57 145.23 205.7C135.72 211.24 126.13 216.66 116.64 222.23C114.45 223.52 112.65 223.44 110.45 222.16C96.2495 213.87 82.0095 205.64 67.7095 197.52C64.9095 195.93 63.8995 193.86 63.9495 190.74C64.0695 182.78 63.9795 174.83 63.9795 166.89Z" fill="white"/>
<path d="M176.999 146.62C178.029 147.13 179.039 147.57 179.999 148.12C189.659 153.66 199.289 159.27 208.979 164.75C211.609 166.24 211.969 167.25 209.079 168.88C199.259 174.42 189.489 180.06 179.749 185.74C177.899 186.82 176.369 187.11 174.369 185.93C164.649 180.21 154.859 174.62 145.069 169.02C142.959 167.81 141.789 166.64 144.649 164.98C154.779 159.13 164.899 153.28 175.039 147.44C175.609 147.1 176.279 146.91 176.999 146.62Z" fill="white"/>
<path d="M176.859 260.1C175.819 259.62 174.779 259.23 173.829 258.68C164.299 253.2 154.809 247.66 145.259 242.21C142.539 240.66 142.069 239.45 145.159 237.71C154.969 232.16 164.709 226.5 174.439 220.81C176.239 219.76 177.729 219.87 179.479 220.89C189.209 226.57 198.989 232.18 208.749 237.8C210.739 238.94 212.239 240.11 209.249 241.82C199.239 247.58 189.229 253.33 179.209 259.07C178.499 259.49 177.699 259.74 176.859 260.1Z" fill="white"/>
<path d="M455.869 193.82C446.159 186.63 440.939 176.34 440.199 162.95H478.719C479.089 167.5 480.439 170.82 482.769 172.9C485.099 174.99 488.119 176.03 491.799 176.03C495.119 176.03 497.849 175.2 499.999 173.54C502.149 171.88 503.229 169.58 503.229 166.63C503.229 162.82 501.449 159.87 497.879 157.78C494.309 155.69 488.539 153.36 480.549 150.78C472.069 147.95 465.219 145.22 459.999 142.58C454.779 139.94 450.229 136.07 446.359 130.97C442.489 125.87 440.549 119.21 440.549 110.97C440.549 102.61 442.639 95.4601 446.819 89.5001C450.999 83.5401 456.769 79.0301 464.149 75.9501C471.519 72.8801 479.879 71.3401 489.219 71.3401C504.329 71.3401 516.409 74.8701 525.439 81.9401C534.469 89.0101 539.289 98.9301 539.909 111.71H500.649C500.529 107.78 499.329 104.83 497.059 102.86C494.779 100.9 491.869 99.9101 488.309 99.9101C485.599 99.9101 483.389 100.71 481.669 102.31C479.949 103.91 479.089 106.18 479.089 109.13C479.089 111.59 480.039 113.71 481.949 115.49C483.849 117.27 486.219 118.81 489.049 120.1C491.879 121.39 496.049 123.02 501.579 124.98C509.809 127.81 516.599 130.6 521.949 133.37C527.299 136.14 531.899 140.01 535.769 144.98C539.639 149.96 541.579 156.26 541.579 163.87C541.579 171.61 539.639 178.55 535.769 184.7C531.899 190.85 526.309 195.7 518.999 199.26C511.689 202.83 503.059 204.6 493.099 204.6C477.979 204.61 465.569 201.01 455.869 193.82Z" fill="white"/>
<path d="M578.709 198.16C570.539 193.86 564.119 187.72 559.449 179.73C554.779 171.74 552.449 162.34 552.449 151.53C552.449 140.84 554.809 131.5 559.549 123.51C564.279 115.52 570.729 109.38 578.899 105.08C587.069 100.78 596.319 98.6301 606.639 98.6301C616.959 98.6301 626.209 100.78 634.379 105.08C642.549 109.38 648.999 115.53 653.729 123.51C658.459 131.5 660.829 140.84 660.829 151.53C660.829 162.22 658.459 171.59 653.729 179.64C648.999 187.69 642.519 193.86 634.279 198.16C626.049 202.46 616.769 204.61 606.449 204.61C596.129 204.61 586.879 202.46 578.709 198.16ZM619.079 167.65C622.459 163.9 624.149 158.53 624.149 151.52C624.149 144.51 622.459 139.17 619.079 135.48C615.699 131.79 611.549 129.95 606.639 129.95C601.719 129.95 597.609 131.79 594.289 135.48C590.969 139.17 589.309 144.51 589.309 151.52C589.309 158.65 590.909 164.05 594.099 167.74C597.289 171.43 601.409 173.27 606.449 173.27C611.489 173.27 615.699 171.4 619.079 167.65Z" fill="white"/>
<path d="M711.699 66.9202V203.32H675.569V66.9202H711.699Z" fill="white"/>
<path d="M838.14 99.9101V203.31H801.83V188.56C798.76 193.23 794.52 197.01 789.11 199.89C783.7 202.78 777.5 204.22 770.49 204.22C758.45 204.22 748.95 200.26 742.01 192.33C735.07 184.4 731.6 173.62 731.6 159.98V99.8901H767.54V155.37C767.54 161.27 769.11 165.91 772.24 169.29C775.37 172.67 779.52 174.36 784.68 174.36C789.96 174.36 794.14 172.67 797.21 169.29C800.28 165.91 801.82 161.27 801.82 155.37V99.8901H838.14V99.9101Z" fill="white"/>
<path d="M919.79 172.54V203.32H904.12C877.7 203.32 864.49 190.23 864.49 164.06V129.96H851.77V99.9201H864.49V74.8501H900.8V99.9201H919.599V129.96H900.8V164.61C900.8 167.44 901.449 169.47 902.729 170.69C904.019 171.92 906.2 172.53 909.27 172.53H919.79V172.54Z" fill="white"/>
<path d="M939.24 85.0801C935.37 81.5801 933.43 77.1901 933.43 71.9001C933.43 66.4901 935.37 62.0101 939.24 58.4401C943.11 54.8801 948.24 53.0901 954.63 53.0901C960.9 53.0901 965.97 54.8701 969.84 58.4401C973.71 62.0101 975.65 66.4901 975.65 71.9001C975.65 77.1901 973.71 81.5801 969.84 85.0801C965.97 88.5801 960.9 90.3301 954.63 90.3301C948.24 90.3301 943.11 88.5801 939.24 85.0801ZM972.51 99.9101V203.31H936.38V99.9101H972.51Z" fill="white"/>
<path d="M1013.52 198.16C1005.35 193.86 998.929 187.72 994.259 179.73C989.589 171.74 987.259 162.34 987.259 151.53C987.259 140.84 989.619 131.5 994.359 123.51C999.089 115.52 1005.54 109.38 1013.71 105.08C1021.88 100.78 1031.13 98.6301 1041.45 98.6301C1051.77 98.6301 1061.02 100.78 1069.19 105.08C1077.36 109.38 1083.81 115.53 1088.54 123.51C1093.27 131.5 1095.64 140.84 1095.64 151.53C1095.64 162.22 1093.27 171.59 1088.54 179.64C1083.81 187.69 1077.33 193.86 1069.09 198.16C1060.86 202.46 1051.58 204.61 1041.26 204.61C1030.93 204.61 1021.69 202.46 1013.52 198.16ZM1053.88 167.65C1057.26 163.9 1058.95 158.53 1058.95 151.52C1058.95 144.51 1057.26 139.17 1053.88 135.48C1050.5 131.79 1046.35 129.95 1041.44 129.95C1036.52 129.95 1032.41 131.79 1029.09 135.48C1025.77 139.17 1024.11 144.51 1024.11 151.52C1024.11 158.65 1025.71 164.05 1028.9 167.74C1032.09 171.43 1036.21 173.27 1041.25 173.27C1046.29 173.27 1050.5 171.4 1053.88 167.65Z" fill="white"/>
<path d="M1206.4 110.88C1213.4 118.81 1216.91 129.53 1216.91 143.04V203.31H1180.78V147.83C1180.78 141.93 1179.24 137.29 1176.17 133.91C1173.1 130.53 1168.98 128.84 1163.82 128.84C1158.41 128.84 1154.17 130.53 1151.1 133.91C1148.03 137.29 1146.49 141.93 1146.49 147.83V203.31H1110.36V99.91H1146.49V114.66C1149.68 109.99 1153.98 106.21 1159.39 103.32C1164.8 100.43 1171 98.99 1178.01 98.99C1189.94 98.99 1199.4 102.95 1206.4 110.88Z" fill="white"/>
<path d="M1255.89 199.91C1248.58 196.78 1242.8 192.48 1238.56 187.01C1234.32 181.54 1231.95 175.37 1231.46 168.49H1266.48C1266.97 171.81 1268.51 174.39 1271.09 176.23C1273.67 178.07 1276.86 178.99 1280.67 178.99C1283.62 178.99 1285.95 178.38 1287.67 177.15C1289.39 175.92 1290.25 174.32 1290.25 172.36C1290.25 169.78 1288.84 167.88 1286.01 166.65C1283.18 165.42 1278.51 164.07 1272 162.6C1264.63 161.13 1258.48 159.47 1253.57 157.62C1248.65 155.78 1244.38 152.77 1240.76 148.59C1237.14 144.41 1235.32 138.76 1235.32 131.63C1235.32 125.49 1236.98 119.93 1240.3 114.95C1243.62 109.97 1248.5 106.01 1254.95 103.06C1261.4 100.11 1269.17 98.6401 1278.27 98.6401C1291.79 98.6401 1302.42 101.96 1310.16 108.59C1317.9 115.23 1322.39 123.95 1323.62 134.76H1291C1290.38 131.44 1288.94 128.89 1286.67 127.11C1284.39 125.33 1281.35 124.44 1277.55 124.44C1274.6 124.44 1272.36 124.99 1270.82 126.1C1269.28 127.21 1268.52 128.74 1268.52 130.71C1268.52 133.17 1269.93 135.04 1272.76 136.33C1275.58 137.62 1280.13 138.94 1286.4 140.29C1293.89 141.89 1300.13 143.67 1305.11 145.63C1310.09 147.6 1314.45 150.76 1318.2 155.12C1321.95 159.48 1323.82 165.41 1323.82 172.91C1323.82 178.93 1322.07 184.34 1318.57 189.13C1315.07 193.92 1310.09 197.7 1303.64 200.46C1297.19 203.23 1289.6 204.61 1280.88 204.61C1271.53 204.61 1263.2 203.04 1255.89 199.91Z" fill="white"/>
<path d="M1397.35 74.8501V203.32H1380.58V74.8501H1397.35Z" fill="white"/>
<path d="M1504.99 111.62C1512.61 119.06 1516.42 129.78 1516.42 143.78V203.32H1499.83V146.18C1499.83 136.11 1497.31 128.39 1492.27 123.05C1487.23 117.71 1480.35 115.03 1471.63 115.03C1462.78 115.03 1455.75 117.79 1450.53 123.32C1445.31 128.85 1442.7 136.9 1442.7 147.47V203.32H1425.93V102.31H1442.7V116.69C1446.02 111.53 1450.53 107.54 1456.25 104.71C1461.96 101.88 1468.26 100.47 1475.14 100.47C1487.42 100.47 1497.37 104.19 1504.99 111.62Z" fill="white"/>
<path d="M1622.96 111.62C1630.58 119.06 1634.39 129.78 1634.39 143.78V203.32H1617.8V146.18C1617.8 136.11 1615.28 128.39 1610.24 123.05C1605.2 117.71 1598.32 115.03 1589.6 115.03C1580.75 115.03 1573.72 117.79 1568.5 123.32C1563.28 128.85 1560.67 136.9 1560.67 147.47V203.32H1543.9V102.31H1560.67V116.69C1563.99 111.53 1568.5 107.54 1574.22 104.71C1579.93 101.88 1586.23 100.47 1593.11 100.47C1605.38 100.47 1615.34 104.19 1622.96 111.62Z" fill="white"/>
<path d="M1680.19 198.53C1672.51 194.23 1666.49 188.12 1662.13 180.19C1657.77 172.26 1655.59 163.08 1655.59 152.63C1655.59 142.31 1657.83 133.18 1662.32 125.26C1666.8 117.33 1672.92 111.25 1680.66 107.01C1688.4 102.77 1697.06 100.65 1706.65 100.65C1716.23 100.65 1724.9 102.77 1732.64 107.01C1740.38 111.25 1746.49 117.3 1750.98 125.17C1755.46 133.04 1757.71 142.19 1757.71 152.63C1757.71 163.08 1755.41 172.26 1750.8 180.19C1746.19 188.12 1739.95 194.23 1732.09 198.53C1724.22 202.83 1715.5 204.98 1705.92 204.98C1696.44 204.98 1687.87 202.83 1680.19 198.53ZM1722.86 185.99C1728.14 183.16 1732.41 178.93 1735.67 173.27C1738.92 167.62 1740.55 160.74 1740.55 152.63C1740.55 144.52 1738.95 137.64 1735.76 131.99C1732.56 126.34 1728.39 122.13 1723.23 119.37C1718.07 116.6 1712.48 115.22 1706.46 115.22C1700.31 115.22 1694.69 116.6 1689.59 119.37C1684.49 122.13 1680.4 126.34 1677.33 131.99C1674.26 137.64 1672.72 144.52 1672.72 152.63C1672.72 160.86 1674.22 167.81 1677.24 173.46C1680.25 179.11 1684.27 183.32 1689.31 186.09C1694.35 188.85 1699.88 190.24 1705.9 190.24C1711.92 190.23 1717.58 188.82 1722.86 185.99Z" fill="white"/>
<path d="M1817.42 187.83L1848.75 102.31H1866.63L1827 203.32H1807.46L1767.83 102.31H1785.89L1817.42 187.83Z" fill="white"/>
<path d="M1888.93 122.22C1885.24 117.06 1883.4 110.79 1883.4 103.42C1883.4 96.78 1885.06 90.79 1888.38 85.45C1891.7 80.1 1896.64 75.87 1903.22 72.73C1909.79 69.6 1917.75 68.03 1927.09 68.03C1936.43 68.03 1944.38 69.6 1950.96 72.73C1957.53 75.86 1962.51 80.1 1965.89 85.45C1969.27 90.79 1970.96 96.78 1970.96 103.42C1970.96 110.55 1969.05 116.78 1965.25 122.13C1961.44 127.47 1956.22 131.44 1949.58 134.02C1957.2 136.35 1963.25 140.44 1967.74 146.28C1972.22 152.12 1974.47 159.15 1974.47 167.38C1974.47 175.37 1972.5 182.34 1968.57 188.3C1964.64 194.26 1959.08 198.87 1951.89 202.12C1944.7 205.37 1936.44 207 1927.1 207C1917.76 207 1909.56 205.37 1902.49 202.12C1895.42 198.87 1889.92 194.26 1885.99 188.3C1882.06 182.34 1880.09 175.37 1880.09 167.38C1880.09 159.15 1882.3 152.08 1886.73 146.18C1891.15 140.28 1897.17 136.23 1904.79 134.01C1897.9 131.31 1892.62 127.38 1888.93 122.22ZM1904.78 147.74C1899 151.98 1896.12 158.34 1896.12 166.82C1896.12 174.69 1898.91 181.01 1904.51 185.8C1910.1 190.59 1917.63 192.99 1927.09 192.99C1936.55 192.99 1944.05 190.59 1949.58 185.8C1955.11 181.01 1957.87 174.68 1957.87 166.82C1957.87 158.59 1955.04 152.29 1949.39 147.93C1943.74 143.57 1936.3 141.39 1927.09 141.39C1917.99 141.39 1910.56 143.51 1904.78 147.74ZM1947.36 88.12C1942.44 84.06 1935.68 82.04 1927.08 82.04C1918.6 82.04 1911.9 84.07 1906.99 88.12C1902.07 92.17 1899.62 98.01 1899.62 105.63C1899.62 112.51 1902.17 118.04 1907.27 122.22C1912.37 126.4 1918.98 128.49 1927.08 128.49C1935.31 128.49 1941.98 126.37 1947.08 122.13C1952.18 117.89 1954.73 112.33 1954.73 105.45C1954.73 97.95 1952.27 92.17 1947.36 88.12Z" fill="white"/>
<path d="M480.7 253.71C485.06 255.93 488.399 259.1 490.729 263.23C493.049 267.36 494.219 272.21 494.219 277.8C494.219 283.39 493.059 288.23 490.729 292.33C488.399 296.43 485.06 299.56 480.7 301.73C476.34 303.9 471.179 304.98 465.229 304.98H448.229V250.38H465.229C471.179 250.38 476.34 251.49 480.7 253.71ZM481.37 293.5C485.08 289.77 486.93 284.53 486.93 277.79C486.93 271 485.06 265.7 481.33 261.89C477.6 258.08 472.229 256.17 465.229 256.17H455.359V299.1H465.229C472.279 299.1 477.66 297.24 481.37 293.5Z" fill="white"/>
<path d="M553.519 253.67C552.579 252.73 552.109 251.58 552.109 250.22C552.109 248.86 552.579 247.71 553.519 246.77C554.459 245.83 555.609 245.36 556.969 245.36C558.269 245.36 559.389 245.83 560.299 246.77C561.209 247.71 561.669 248.86 561.669 250.22C561.669 251.58 561.209 252.73 560.299 253.67C559.389 254.61 558.279 255.08 556.969 255.08C555.599 255.08 554.449 254.61 553.519 253.67ZM560.409 262.05V304.98H553.279V262.05H560.409Z" fill="white"/>
<path d="M649.679 263.77C652.469 265.39 654.549 267.43 655.909 269.88V262.05H663.119V305.92C663.119 309.84 662.279 313.32 660.609 316.38C658.939 319.43 656.549 321.82 653.439 323.55C650.329 325.27 646.719 326.13 642.589 326.13C636.949 326.13 632.249 324.8 628.489 322.13C624.729 319.47 622.509 315.84 621.829 311.24H628.879C629.659 313.85 631.279 315.95 633.739 317.55C636.189 319.14 639.149 319.94 642.589 319.94C646.509 319.94 649.709 318.71 652.189 316.26C654.669 313.8 655.909 310.36 655.909 305.92V296.91C654.499 299.42 652.409 301.51 649.639 303.18C646.869 304.85 643.629 305.69 639.929 305.69C636.119 305.69 632.659 304.75 629.549 302.87C626.439 300.99 623.999 298.35 622.229 294.96C620.449 291.57 619.569 287.7 619.569 283.37C619.569 278.98 620.459 275.13 622.229 271.81C623.999 268.49 626.449 265.92 629.549 264.09C632.659 262.26 636.119 261.35 639.929 261.35C643.629 261.34 646.879 262.15 649.679 263.77ZM653.939 274.97C652.629 272.57 650.869 270.73 648.649 269.45C646.429 268.17 643.989 267.53 641.319 267.53C638.659 267.53 636.229 268.16 634.029 269.41C631.839 270.66 630.089 272.49 628.779 274.89C627.469 277.29 626.819 280.11 626.819 283.35C626.819 286.64 627.469 289.5 628.779 291.93C630.079 294.36 631.839 296.21 634.029 297.49C636.219 298.77 638.649 299.41 641.319 299.41C643.979 299.41 646.419 298.77 648.649 297.49C650.869 296.21 652.629 294.36 653.939 291.93C655.249 289.5 655.899 286.67 655.899 283.43C655.899 280.2 655.249 277.38 653.939 274.97Z" fill="white"/>
<path d="M725.08 253.67C724.14 252.73 723.67 251.58 723.67 250.22C723.67 248.86 724.14 247.71 725.08 246.77C726.02 245.83 727.17 245.36 728.53 245.36C729.83 245.36 730.95 245.83 731.86 246.77C732.77 247.71 733.23 248.86 733.23 250.22C733.23 251.58 732.77 252.73 731.86 253.67C730.95 254.61 729.84 255.08 728.53 255.08C727.16 255.08 726.02 254.61 725.08 253.67ZM731.97 262.05V304.98H724.84V262.05H731.97Z" fill="white"/>
<path d="M802.469 267.92V293.22C802.469 295.31 802.909 296.78 803.799 297.65C804.689 298.51 806.229 298.94 808.419 298.94H813.669V304.97H807.249C803.279 304.97 800.299 304.06 798.319 302.23C796.329 300.4 795.339 297.4 795.339 293.22V267.92H789.779V262.04H795.339V251.23H802.469V262.04H813.669V267.92H802.469Z" fill="white"/>
<path d="M871.959 271.8C873.729 268.48 876.179 265.91 879.279 264.08C882.389 262.25 885.849 261.34 889.659 261.34C893.419 261.34 896.679 262.15 899.449 263.77C902.219 265.39 904.279 267.43 905.639 269.88V262.05H912.849V304.98H905.639V296.99C904.229 299.5 902.129 301.57 899.329 303.22C896.529 304.87 893.289 305.69 889.579 305.69C885.769 305.69 882.319 304.75 879.239 302.87C876.159 300.99 873.729 298.35 871.949 294.96C870.169 291.57 869.289 287.7 869.289 283.37C869.299 278.97 870.179 275.12 871.959 271.8ZM903.689 274.97C902.379 272.57 900.619 270.73 898.399 269.45C896.179 268.17 893.739 267.53 891.069 267.53C888.409 267.53 885.979 268.16 883.779 269.41C881.589 270.66 879.839 272.49 878.529 274.89C877.219 277.29 876.569 280.11 876.569 283.35C876.569 286.64 877.219 289.5 878.529 291.93C879.829 294.36 881.589 296.21 883.779 297.49C885.969 298.77 888.399 299.41 891.069 299.41C893.729 299.41 896.169 298.77 898.399 297.49C900.619 296.21 902.379 294.36 903.689 291.93C904.999 289.5 905.649 286.67 905.649 283.43C905.649 280.2 904.989 277.38 903.689 274.97Z" fill="white"/>
<path d="M981.709 247.01V304.98H974.579V247.01H981.709Z" fill="white"/>
<path d="M1121.23 250.38V304.98H1114.1V250.38H1121.23Z" fill="white"/>
<path d="M1216.65 266C1219.89 269.16 1221.51 273.72 1221.51 279.67V304.97H1214.46V280.68C1214.46 276.4 1213.39 273.12 1211.25 270.85C1209.11 268.58 1206.18 267.44 1202.48 267.44C1198.72 267.44 1195.73 268.61 1193.51 270.97C1191.29 273.32 1190.18 276.74 1190.18 281.23V304.97H1183.05V262.04H1190.18V268.15C1191.59 265.96 1193.51 264.26 1195.94 263.06C1198.37 261.86 1201.04 261.26 1203.97 261.26C1209.18 261.27 1213.41 262.85 1216.65 266Z" fill="white"/>
<path d="M1316.45 266C1319.69 269.16 1321.31 273.72 1321.31 279.67V304.97H1314.26V280.68C1314.26 276.4 1313.19 273.12 1311.05 270.85C1308.91 268.58 1305.98 267.44 1302.28 267.44C1298.52 267.44 1295.53 268.61 1293.31 270.97C1291.09 273.32 1289.98 276.74 1289.98 281.23V304.97H1282.85V262.04H1289.98V268.15C1291.39 265.96 1293.31 264.26 1295.74 263.06C1298.17 261.86 1300.84 261.26 1303.77 261.26C1308.98 261.27 1313.21 262.85 1316.45 266Z" fill="white"/>
<path d="M1390.44 302.94C1387.18 301.11 1384.62 298.51 1382.76 295.15C1380.91 291.78 1379.98 287.88 1379.98 283.44C1379.98 279.05 1380.93 275.18 1382.84 271.81C1384.75 268.44 1387.34 265.86 1390.63 264.06C1393.92 262.26 1397.6 261.36 1401.68 261.36C1405.76 261.36 1409.44 262.26 1412.73 264.06C1416.02 265.86 1418.62 268.43 1420.52 271.78C1422.43 275.12 1423.38 279.01 1423.38 283.45C1423.38 287.89 1422.4 291.79 1420.44 295.16C1418.48 298.53 1415.83 301.13 1412.49 302.95C1409.15 304.78 1405.44 305.69 1401.37 305.69C1397.35 305.68 1393.7 304.77 1390.44 302.94ZM1408.58 297.61C1410.83 296.41 1412.64 294.61 1414.02 292.2C1415.4 289.8 1416.1 286.87 1416.1 283.43C1416.1 279.98 1415.42 277.06 1414.06 274.66C1412.7 272.26 1410.93 270.47 1408.73 269.29C1406.54 268.12 1404.16 267.53 1401.6 267.53C1398.99 267.53 1396.6 268.12 1394.43 269.29C1392.26 270.47 1390.52 272.25 1389.22 274.66C1387.91 277.06 1387.26 279.99 1387.26 283.43C1387.26 286.93 1387.9 289.88 1389.18 292.28C1390.46 294.68 1392.17 296.47 1394.31 297.65C1396.45 298.82 1398.8 299.41 1401.36 299.41C1403.93 299.42 1406.33 298.82 1408.58 297.61Z" fill="white"/>
<path d="M1498.43 298.4L1511.75 262.05H1519.35L1502.51 304.98H1494.21L1477.37 262.05H1485.05L1498.43 298.4Z" fill="white"/>
<path d="M1576.06 271.8C1577.83 268.48 1580.28 265.91 1583.38 264.08C1586.49 262.25 1589.95 261.34 1593.76 261.34C1597.52 261.34 1600.78 262.15 1603.55 263.77C1606.32 265.39 1608.38 267.43 1609.74 269.88V262.05H1616.95V304.98H1609.74V296.99C1608.33 299.5 1606.23 301.57 1603.43 303.22C1600.63 304.87 1597.39 305.69 1593.68 305.69C1589.87 305.69 1586.42 304.75 1583.34 302.87C1580.26 300.99 1577.83 298.35 1576.05 294.96C1574.27 291.57 1573.39 287.7 1573.39 283.37C1573.4 278.97 1574.29 275.12 1576.06 271.8ZM1607.79 274.97C1606.48 272.57 1604.72 270.73 1602.5 269.45C1600.28 268.17 1597.84 267.53 1595.17 267.53C1592.51 267.53 1590.08 268.16 1587.88 269.41C1585.69 270.66 1583.94 272.49 1582.63 274.89C1581.32 277.29 1580.67 280.11 1580.67 283.35C1580.67 286.64 1581.32 289.5 1582.63 291.93C1583.93 294.36 1585.69 296.21 1587.88 297.49C1590.07 298.77 1592.5 299.41 1595.17 299.41C1597.83 299.41 1600.27 298.77 1602.5 297.49C1604.72 296.21 1606.48 294.36 1607.79 291.93C1609.1 289.5 1609.75 286.67 1609.75 283.43C1609.75 280.2 1609.1 277.38 1607.79 274.97Z" fill="white"/>
<path d="M1687.38 267.92V293.22C1687.38 295.31 1687.82 296.78 1688.71 297.65C1689.6 298.51 1691.14 298.94 1693.33 298.94H1698.58V304.97H1692.16C1688.19 304.97 1685.21 304.06 1683.23 302.23C1681.24 300.4 1680.25 297.4 1680.25 293.22V267.92H1674.69V262.04H1680.25V251.23H1687.38V262.04H1698.58V267.92H1687.38Z" fill="white"/>
<path d="M1764.66 302.94C1761.4 301.11 1758.84 298.51 1756.98 295.15C1755.13 291.78 1754.2 287.88 1754.2 283.44C1754.2 279.05 1755.15 275.18 1757.06 271.81C1758.97 268.44 1761.56 265.86 1764.85 264.06C1768.14 262.26 1771.82 261.36 1775.9 261.36C1779.98 261.36 1783.66 262.26 1786.95 264.06C1790.24 265.86 1792.84 268.43 1794.74 271.78C1796.65 275.12 1797.6 279.01 1797.6 283.45C1797.6 287.89 1796.62 291.79 1794.66 295.16C1792.7 298.53 1790.05 301.13 1786.71 302.95C1783.37 304.78 1779.66 305.69 1775.59 305.69C1771.57 305.68 1767.93 304.77 1764.66 302.94ZM1782.8 297.61C1785.05 296.41 1786.86 294.61 1788.24 292.2C1789.62 289.8 1790.32 286.87 1790.32 283.43C1790.32 279.98 1789.64 277.06 1788.28 274.66C1786.92 272.26 1785.15 270.47 1782.95 269.29C1780.76 268.12 1778.38 267.53 1775.82 267.53C1773.21 267.53 1770.82 268.12 1768.65 269.29C1766.48 270.47 1764.74 272.25 1763.44 274.66C1762.13 277.06 1761.48 279.99 1761.48 283.43C1761.48 286.93 1762.12 289.88 1763.4 292.28C1764.68 294.68 1766.39 296.47 1768.53 297.65C1770.67 298.82 1773.02 299.41 1775.58 299.41C1778.15 299.42 1780.55 298.82 1782.8 297.61Z" fill="white"/>
<path d="M1869.17 263.3C1871.49 261.94 1874.33 261.26 1877.67 261.26V268.62H1875.79C1867.8 268.62 1863.8 272.96 1863.8 281.62V304.96H1856.67V262.03H1863.8V269C1865.05 266.57 1866.84 264.66 1869.17 263.3Z" fill="white"/>
<path d="M1941.9 304C1939.29 302.88 1937.23 301.31 1935.71 299.3C1934.2 297.29 1933.36 294.98 1933.2 292.37H1940.56C1940.77 294.51 1941.77 296.26 1943.58 297.62C1945.38 298.98 1947.74 299.66 1950.67 299.66C1953.38 299.66 1955.53 299.06 1957.09 297.86C1958.66 296.66 1959.44 295.15 1959.44 293.32C1959.44 291.44 1958.6 290.04 1956.93 289.13C1955.26 288.22 1952.67 287.32 1949.17 286.43C1945.98 285.6 1943.38 284.75 1941.38 283.88C1939.37 283.02 1937.65 281.74 1936.21 280.04C1934.77 278.34 1934.06 276.11 1934.06 273.34C1934.06 271.15 1934.71 269.14 1936.02 267.31C1937.32 265.48 1939.18 264.03 1941.58 262.96C1943.98 261.89 1946.72 261.35 1949.81 261.35C1954.56 261.35 1958.4 262.55 1961.33 264.95C1964.25 267.35 1965.82 270.64 1966.03 274.82H1958.9C1958.74 272.57 1957.84 270.77 1956.2 269.41C1954.56 268.05 1952.35 267.37 1949.58 267.37C1947.02 267.37 1944.98 267.92 1943.47 269.02C1941.95 270.12 1941.2 271.55 1941.2 273.33C1941.2 274.74 1941.66 275.9 1942.57 276.82C1943.48 277.74 1944.63 278.47 1946.02 279.01C1947.4 279.56 1949.32 280.17 1951.78 280.85C1954.86 281.69 1957.37 282.51 1959.3 283.32C1961.23 284.13 1962.89 285.34 1964.27 286.96C1965.65 288.58 1966.37 290.69 1966.42 293.3C1966.42 295.65 1965.77 297.77 1964.46 299.65C1963.15 301.53 1961.31 303.01 1958.94 304.08C1956.56 305.15 1953.83 305.69 1950.75 305.69C1947.47 305.68 1944.51 305.12 1941.9 304Z" fill="white"/>
</svg>
